<svg width="208" height="208" viewBox="0 0 208 208" fill="none" xmlns="http://www.w3.org/2000/svg">
<g filter="url(#filter0_d_219_17)">
<rect x="6" y="2" width="196" height="196" rx="18" fill="#EFEFEF" stroke="black" stroke-width="4"/>
<g filter="url(#filter1_d_219_17)">
<path d="M60 0H184C195.046 0 204 8.9543 204 20V39.9699H84C84 39.9699 80.3348 39.4714 78 38C75.3363 36.3214 73 32 73 32L60 0Z" fill="#878787"/>
<path d="M74.8077 31.1358L62.9712 2H184C193.941 2 202 10.0589 202 20V37.9699H84.1487C84.059 37.9557 83.9235 37.9333 83.7517 37.9018C83.4065 37.8385 82.9212 37.7396 82.3705 37.5989C81.2292 37.3074 79.9688 36.8767 79.0663 36.308C78.0823 35.6878 77.0188 34.4605 76.1313 33.2118C75.708 32.6163 75.36 32.0668 75.1184 31.6671C74.9981 31.4679 74.9053 31.3078 74.844 31.2C74.8303 31.1759 74.8181 31.1545 74.8077 31.1358Z" stroke="black" stroke-width="4"/>
</g>
<g filter="url(#filter2_d_219_17)">
<line x1="26" y1="26" x2="52" y2="26" stroke="black" stroke-width="4" stroke-linecap="round"/>
</g>
<path d="M23.5259 58.008L27.6779 55.68H30.0779V72H27.2459V58.848L24.7979 60.192L23.5259 58.008ZM52.6128 62.112V65.544C52.6128 67.624 52.1248 69.264 51.1488 70.464C50.1728 71.648 48.7408 72.24 46.8528 72.24C44.9648 72.24 43.5328 71.648 42.5568 70.464C41.5808 69.264 41.0928 67.624 41.0928 65.544V62.112C41.0928 60.032 41.5808 58.4 42.5568 57.216C43.5328 56.032 44.9648 55.44 46.8528 55.44C48.7408 55.44 50.1728 56.032 51.1488 57.216C52.1248 58.4 52.6128 60.032 52.6128 62.112ZM49.7088 62.112C49.7088 59.44 48.7568 58.104 46.8528 58.104C45.8768 58.104 45.1568 58.44 44.6928 59.112C44.2288 59.784 43.9968 60.784 43.9968 62.112V65.544C43.9968 66.872 44.2288 67.88 44.6928 68.568C45.1568 69.24 45.8768 69.576 46.8528 69.576C48.7568 69.576 49.7088 68.232 49.7088 65.544V62.112ZM61.6212 58.008L65.7732 55.68H68.1732V72H65.3412V58.848L62.8932 60.192L61.6212 58.008ZM90.7081 62.112V65.544C90.7081 67.624 90.2201 69.264 89.2441 70.464C88.2681 71.648 86.8361 72.24 84.9481 72.24C83.0601 72.24 81.6281 71.648 80.6521 70.464C79.6761 69.264 79.1881 67.624 79.1881 65.544V62.112C79.1881 60.032 79.6761 58.4 80.6521 57.216C81.6281 56.032 83.0601 55.44 84.9481 55.44C86.8361 55.44 88.2681 56.032 89.2441 57.216C90.2201 58.4 90.7081 60.032 90.7081 62.112ZM87.8041 62.112C87.8041 59.44 86.8521 58.104 84.9481 58.104C83.9721 58.104 83.2521 58.44 82.7881 59.112C82.3241 59.784 82.0921 60.784 82.0921 62.112V65.544C82.0921 66.872 82.3241 67.88 82.7881 68.568C83.2521 69.24 83.9721 69.576 84.9481 69.576C86.8521 69.576 87.8041 68.232 87.8041 65.544V62.112ZM99.7166 58.008L103.869 55.68H106.269V72H103.437V58.848L100.989 60.192L99.7166 58.008ZM128.803 62.112V65.544C128.803 67.624 128.315 69.264 127.339 70.464C126.363 71.648 124.931 72.24 123.043 72.24C121.155 72.24 119.723 71.648 118.747 70.464C117.771 69.264 117.283 67.624 117.283 65.544V62.112C117.283 60.032 117.771 58.4 118.747 57.216C119.723 56.032 121.155 55.44 123.043 55.44C124.931 55.44 126.363 56.032 127.339 57.216C128.315 58.4 128.803 60.032 128.803 62.112ZM125.899 62.112C125.899 59.44 124.947 58.104 123.043 58.104C122.067 58.104 121.347 58.44 120.883 59.112C120.419 59.784 120.187 60.784 120.187 62.112V65.544C120.187 66.872 120.419 67.88 120.883 68.568C121.347 69.24 122.067 69.576 123.043 69.576C124.947 69.576 125.899 68.232 125.899 65.544V62.112ZM137.812 58.008L141.964 55.68H144.364V72H141.532V58.848L139.084 60.192L137.812 58.008ZM166.899 62.112V65.544C166.899 67.624 166.411 69.264 165.435 70.464C164.459 71.648 163.027 72.24 161.139 72.24C159.251 72.24 157.819 71.648 156.843 70.464C155.867 69.264 155.379 67.624 155.379 65.544V62.112C155.379 60.032 155.867 58.4 156.843 57.216C157.819 56.032 159.251 55.44 161.139 55.44C163.027 55.44 164.459 56.032 165.435 57.216C166.411 58.4 166.899 60.032 166.899 62.112ZM163.995 62.112C163.995 59.44 163.043 58.104 161.139 58.104C160.163 58.104 159.443 58.44 158.979 59.112C158.515 59.784 158.283 60.784 158.283 62.112V65.544C158.283 66.872 158.515 67.88 158.979 68.568C159.443 69.24 160.163 69.576 161.139 69.576C163.043 69.576 163.995 68.232 163.995 65.544V62.112ZM175.907 58.008L180.059 55.68H182.459V72H179.627V58.848L177.179 60.192L175.907 58.008ZM33.5652 91.112V94.544C33.5652 96.624 33.0772 98.264 32.1012 99.464C31.1252 100.648 29.6932 101.24 27.8052 101.24C25.9172 101.24 24.4852 100.648 23.5092 99.464C22.5332 98.264 22.0452 96.624 22.0452 94.544V91.112C22.0452 89.032 22.5332 87.4 23.5092 86.216C24.4852 85.032 25.9172 84.44 27.8052 84.44C29.6932 84.44 31.1252 85.032 32.1012 86.216C33.0772 87.4 33.5652 89.032 33.5652 91.112ZM30.6612 91.112C30.6612 88.44 29.7092 87.104 27.8052 87.104C26.8292 87.104 26.1092 87.44 25.6452 88.112C25.1812 88.784 24.9492 89.784 24.9492 91.112V94.544C24.9492 95.872 25.1812 96.88 25.6452 97.568C26.1092 98.24 26.8292 98.576 27.8052 98.576C29.7092 98.576 30.6612 97.232 30.6612 94.544V91.112ZM42.5736 87.008L46.7256 84.68H49.1256V101H46.2936V87.848L43.8456 89.192L42.5736 87.008ZM71.6605 91.112V94.544C71.6605 96.624 71.1725 98.264 70.1965 99.464C69.2205 100.648 67.7885 101.24 65.9005 101.24C64.0125 101.24 62.5805 100.648 61.6045 99.464C60.6285 98.264 60.1405 96.624 60.1405 94.544V91.112C60.1405 89.032 60.6285 87.4 61.6045 86.216C62.5805 85.032 64.0125 84.44 65.9005 84.44C67.7885 84.44 69.2205 85.032 70.1965 86.216C71.1725 87.4 71.6605 89.032 71.6605 91.112ZM68.7565 91.112C68.7565 88.44 67.8045 87.104 65.9005 87.104C64.9245 87.104 64.2045 87.44 63.7405 88.112C63.2765 88.784 63.0445 89.784 63.0445 91.112V94.544C63.0445 95.872 63.2765 96.88 63.7405 97.568C64.2045 98.24 64.9245 98.576 65.9005 98.576C67.8045 98.576 68.7565 97.232 68.7565 94.544V91.112ZM80.6689 87.008L84.8209 84.68H87.2209V101H84.3889V87.848L81.9409 89.192L80.6689 87.008ZM109.756 91.112V94.544C109.756 96.624 109.268 98.264 108.292 99.464C107.316 100.648 105.884 101.24 103.996 101.24C102.108 101.24 100.676 100.648 99.6998 99.464C98.7238 98.264 98.2358 96.624 98.2358 94.544V91.112C98.2358 89.032 98.7238 87.4 99.6998 86.216C100.676 85.032 102.108 84.44 103.996 84.44C105.884 84.44 107.316 85.032 108.292 86.216C109.268 87.4 109.756 89.032 109.756 91.112ZM106.852 91.112C106.852 88.44 105.9 87.104 103.996 87.104C103.02 87.104 102.3 87.44 101.836 88.112C101.372 88.784 101.14 89.784 101.14 91.112V94.544C101.14 95.872 101.372 96.88 101.836 97.568C102.3 98.24 103.02 98.576 103.996 98.576C105.9 98.576 106.852 97.232 106.852 94.544V91.112ZM118.764 87.008L122.916 84.68H125.316V101H122.484V87.848L120.036 89.192L118.764 87.008ZM147.851 91.112V94.544C147.851 96.624 147.363 98.264 146.387 99.464C145.411 100.648 143.979 101.24 142.091 101.24C140.203 101.24 138.771 100.648 137.795 99.464C136.819 98.264 136.331 96.624 136.331 94.544V91.112C136.331 89.032 136.819 87.4 137.795 86.216C138.771 85.032 140.203 84.44 142.091 84.44C143.979 84.44 145.411 85.032 146.387 86.216C147.363 87.4 147.851 89.032 147.851 91.112ZM144.947 91.112C144.947 88.44 143.995 87.104 142.091 87.104C141.115 87.104 140.395 87.44 139.931 88.112C139.467 88.784 139.235 89.784 139.235 91.112V94.544C139.235 95.872 139.467 96.88 139.931 97.568C140.395 98.24 141.115 98.576 142.091 98.576C143.995 98.576 144.947 97.232 144.947 94.544V91.112ZM156.86 87.008L161.012 84.68H163.412V101H160.58V87.848L158.132 89.192L156.86 87.008ZM185.946 91.112V94.544C185.946 96.624 185.458 98.264 184.482 99.464C183.506 100.648 182.074 101.24 180.186 101.24C178.298 101.24 176.866 100.648 175.89 99.464C174.914 98.264 174.426 96.624 174.426 94.544V91.112C174.426 89.032 174.914 87.4 175.89 86.216C176.866 85.032 178.298 84.44 180.186 84.44C182.074 84.44 183.506 85.032 184.482 86.216C185.458 87.4 185.946 89.032 185.946 91.112ZM183.042 91.112C183.042 88.44 182.09 87.104 180.186 87.104C179.21 87.104 178.49 87.44 178.026 88.112C177.562 88.784 177.33 89.784 177.33 91.112V94.544C177.33 95.872 177.562 96.88 178.026 97.568C178.49 98.24 179.21 98.576 180.186 98.576C182.09 98.576 183.042 97.232 183.042 94.544V91.112ZM23.5259 116.008L27.6779 113.68H30.0779V130H27.2459V116.848L24.7979 118.192L23.5259 116.008ZM52.6128 120.112V123.544C52.6128 125.624 52.1248 127.264 51.1488 128.464C50.1728 129.648 48.7408 130.24 46.8528 130.24C44.9648 130.24 43.5328 129.648 42.5568 128.464C41.5808 127.264 41.0928 125.624 41.0928 123.544V120.112C41.0928 118.032 41.5808 116.4 42.5568 115.216C43.5328 114.032 44.9648 113.44 46.8528 113.44C48.7408 113.44 50.1728 114.032 51.1488 115.216C52.1248 116.4 52.6128 118.032 52.6128 120.112ZM49.7088 120.112C49.7088 117.44 48.7568 116.104 46.8528 116.104C45.8768 116.104 45.1568 116.44 44.6928 117.112C44.2288 117.784 43.9968 118.784 43.9968 120.112V123.544C43.9968 124.872 44.2288 125.88 44.6928 126.568C45.1568 127.24 45.8768 127.576 46.8528 127.576C48.7568 127.576 49.7088 126.232 49.7088 123.544V120.112ZM61.6212 116.008L65.7732 113.68H68.1732V130H65.3412V116.848L62.8932 118.192L61.6212 116.008ZM90.7081 120.112V123.544C90.7081 125.624 90.2201 127.264 89.2441 128.464C88.2681 129.648 86.8361 130.24 84.9481 130.24C83.0601 130.24 81.6281 129.648 80.6521 128.464C79.6761 127.264 79.1881 125.624 79.1881 123.544V120.112C79.1881 118.032 79.6761 116.4 80.6521 115.216C81.6281 114.032 83.0601 113.44 84.9481 113.44C86.8361 113.44 88.2681 114.032 89.2441 115.216C90.2201 116.4 90.7081 118.032 90.7081 120.112ZM87.8041 120.112C87.8041 117.44 86.8521 116.104 84.9481 116.104C83.9721 116.104 83.2521 116.44 82.7881 117.112C82.3241 117.784 82.0921 118.784 82.0921 120.112V123.544C82.0921 124.872 82.3241 125.88 82.7881 126.568C83.2521 127.24 83.9721 127.576 84.9481 127.576C86.8521 127.576 87.8041 126.232 87.8041 123.544V120.112ZM99.7166 116.008L103.869 113.68H106.269V130H103.437V116.848L100.989 118.192L99.7166 116.008ZM128.803 120.112V123.544C128.803 125.624 128.315 127.264 127.339 128.464C126.363 129.648 124.931 130.24 123.043 130.24C121.155 130.24 119.723 129.648 118.747 128.464C117.771 127.264 117.283 125.624 117.283 123.544V120.112C117.283 118.032 117.771 116.4 118.747 115.216C119.723 114.032 121.155 113.44 123.043 113.44C124.931 113.44 126.363 114.032 127.339 115.216C128.315 116.4 128.803 118.032 128.803 120.112ZM125.899 120.112C125.899 117.44 124.947 116.104 123.043 116.104C122.067 116.104 121.347 116.44 120.883 117.112C120.419 117.784 120.187 118.784 120.187 120.112V123.544C120.187 124.872 120.419 125.88 120.883 126.568C121.347 127.24 122.067 127.576 123.043 127.576C124.947 127.576 125.899 126.232 125.899 123.544V120.112ZM137.812 116.008L141.964 113.68H144.364V130H141.532V116.848L139.084 118.192L137.812 116.008ZM166.899 120.112V123.544C166.899 125.624 166.411 127.264 165.435 128.464C164.459 129.648 163.027 130.24 161.139 130.24C159.251 130.24 157.819 129.648 156.843 128.464C155.867 127.264 155.379 125.624 155.379 123.544V120.112C155.379 118.032 155.867 116.4 156.843 115.216C157.819 114.032 159.251 113.44 161.139 113.44C163.027 113.44 164.459 114.032 165.435 115.216C166.411 116.4 166.899 118.032 166.899 120.112ZM163.995 120.112C163.995 117.44 163.043 116.104 161.139 116.104C160.163 116.104 159.443 116.44 158.979 117.112C158.515 117.784 158.283 118.784 158.283 120.112V123.544C158.283 124.872 158.515 125.88 158.979 126.568C159.443 127.24 160.163 127.576 161.139 127.576C163.043 127.576 163.995 126.232 163.995 123.544V120.112ZM175.907 116.008L180.059 113.68H182.459V130H179.627V116.848L177.179 118.192L175.907 116.008ZM33.5652 149.112V152.544C33.5652 154.624 33.0772 156.264 32.1012 157.464C31.1252 158.648 29.6932 159.24 27.8052 159.24C25.9172 159.24 24.4852 158.648 23.5092 157.464C22.5332 156.264 22.0452 154.624 22.0452 152.544V149.112C22.0452 147.032 22.5332 145.4 23.5092 144.216C24.4852 143.032 25.9172 142.44 27.8052 142.44C29.6932 142.44 31.1252 143.032 32.1012 144.216C33.0772 145.4 33.5652 147.032 33.5652 149.112ZM30.6612 149.112C30.6612 146.44 29.7092 145.104 27.8052 145.104C26.8292 145.104 26.1092 145.44 25.6452 146.112C25.1812 146.784 24.9492 147.784 24.9492 149.112V152.544C24.9492 153.872 25.1812 154.88 25.6452 155.568C26.1092 156.24 26.8292 156.576 27.8052 156.576C29.7092 156.576 30.6612 155.232 30.6612 152.544V149.112ZM42.5736 145.008L46.7256 142.68H49.1256V159H46.2936V145.848L43.8456 147.192L42.5736 145.008ZM71.6605 149.112V152.544C71.6605 154.624 71.1725 156.264 70.1965 157.464C69.2205 158.648 67.7885 159.24 65.9005 159.24C64.0125 159.24 62.5805 158.648 61.6045 157.464C60.6285 156.264 60.1405 154.624 60.1405 152.544V149.112C60.1405 147.032 60.6285 145.4 61.6045 144.216C62.5805 143.032 64.0125 142.44 65.9005 142.44C67.7885 142.44 69.2205 143.032 70.1965 144.216C71.1725 145.4 71.6605 147.032 71.6605 149.112ZM68.7565 149.112C68.7565 146.44 67.8045 145.104 65.9005 145.104C64.9245 145.104 64.2045 145.44 63.7405 146.112C63.2765 146.784 63.0445 147.784 63.0445 149.112V152.544C63.0445 153.872 63.2765 154.88 63.7405 155.568C64.2045 156.24 64.9245 156.576 65.9005 156.576C67.8045 156.576 68.7565 155.232 68.7565 152.544V149.112ZM80.6689 145.008L84.8209 142.68H87.2209V159H84.3889V145.848L81.9409 147.192L80.6689 145.008ZM109.756 149.112V152.544C109.756 154.624 109.268 156.264 108.292 157.464C107.316 158.648 105.884 159.24 103.996 159.24C102.108 159.24 100.676 158.648 99.6998 157.464C98.7238 156.264 98.2358 154.624 98.2358 152.544V149.112C98.2358 147.032 98.7238 145.4 99.6998 144.216C100.676 143.032 102.108 142.44 103.996 142.44C105.884 142.44 107.316 143.032 108.292 144.216C109.268 145.4 109.756 147.032 109.756 149.112ZM106.852 149.112C106.852 146.44 105.9 145.104 103.996 145.104C103.02 145.104 102.3 145.44 101.836 146.112C101.372 146.784 101.14 147.784 101.14 149.112V152.544C101.14 153.872 101.372 154.88 101.836 155.568C102.3 156.24 103.02 156.576 103.996 156.576C105.9 156.576 106.852 155.232 106.852 152.544V149.112ZM118.764 145.008L122.916 142.68H125.316V159H122.484V145.848L120.036 147.192L118.764 145.008ZM147.851 149.112V152.544C147.851 154.624 147.363 156.264 146.387 157.464C145.411 158.648 143.979 159.24 142.091 159.24C140.203 159.24 138.771 158.648 137.795 157.464C136.819 156.264 136.331 154.624 136.331 152.544V149.112C136.331 147.032 136.819 145.4 137.795 144.216C138.771 143.032 140.203 142.44 142.091 142.44C143.979 142.44 145.411 143.032 146.387 144.216C147.363 145.4 147.851 147.032 147.851 149.112ZM144.947 149.112C144.947 146.44 143.995 145.104 142.091 145.104C141.115 145.104 140.395 145.44 139.931 146.112C139.467 146.784 139.235 147.784 139.235 149.112V152.544C139.235 153.872 139.467 154.88 139.931 155.568C140.395 156.24 141.115 156.576 142.091 156.576C143.995 156.576 144.947 155.232 144.947 152.544V149.112ZM156.86 145.008L161.012 142.68H163.412V159H160.58V145.848L158.132 147.192L156.86 145.008ZM185.946 149.112V152.544C185.946 154.624 185.458 156.264 184.482 157.464C183.506 158.648 182.074 159.24 180.186 159.24C178.298 159.24 176.866 158.648 175.89 157.464C174.914 156.264 174.426 154.624 174.426 152.544V149.112C174.426 147.032 174.914 145.4 175.89 144.216C176.866 143.032 178.298 142.44 180.186 142.44C182.074 142.44 183.506 143.032 184.482 144.216C185.458 145.4 185.946 147.032 185.946 149.112ZM183.042 149.112C183.042 146.44 182.09 145.104 180.186 145.104C179.21 145.104 178.49 145.44 178.026 146.112C177.562 146.784 177.33 147.784 177.33 149.112V152.544C177.33 153.872 177.562 154.88 178.026 155.568C178.49 156.24 179.21 156.576 180.186 156.576C182.09 156.576 183.042 155.232 183.042 152.544V149.112ZM23.5259 174.008L27.6779 171.68H30.0779V188H27.2459V174.848L24.7979 176.192L23.5259 174.008ZM52.6128 178.112V181.544C52.6128 183.624 52.1248 185.264 51.1488 186.464C50.1728 187.648 48.7408 188.24 46.8528 188.24C44.9648 188.24 43.5328 187.648 42.5568 186.464C41.5808 185.264 41.0928 183.624 41.0928 181.544V178.112C41.0928 176.032 41.5808 174.4 42.5568 173.216C43.5328 172.032 44.9648 171.44 46.8528 171.44C48.7408 171.44 50.1728 172.032 51.1488 173.216C52.1248 174.4 52.6128 176.032 52.6128 178.112ZM49.7088 178.112C49.7088 175.44 48.7568 174.104 46.8528 174.104C45.8768 174.104 45.1568 174.44 44.6928 175.112C44.2288 175.784 43.9968 176.784 43.9968 178.112V181.544C43.9968 182.872 44.2288 183.88 44.6928 184.568C45.1568 185.24 45.8768 185.576 46.8528 185.576C48.7568 185.576 49.7088 184.232 49.7088 181.544V178.112ZM61.6212 174.008L65.7732 171.68H68.1732V188H65.3412V174.848L62.8932 176.192L61.6212 174.008ZM90.7081 178.112V181.544C90.7081 183.624 90.2201 185.264 89.2441 186.464C88.2681 187.648 86.8361 188.24 84.9481 188.24C83.0601 188.24 81.6281 187.648 80.6521 186.464C79.6761 185.264 79.1881 183.624 79.1881 181.544V178.112C79.1881 176.032 79.6761 174.4 80.6521 173.216C81.6281 172.032 83.0601 171.44 84.9481 171.44C86.8361 171.44 88.2681 172.032 89.2441 173.216C90.2201 174.4 90.7081 176.032 90.7081 178.112ZM87.8041 178.112C87.8041 175.44 86.8521 174.104 84.9481 174.104C83.9721 174.104 83.2521 174.44 82.7881 175.112C82.3241 175.784 82.0921 176.784 82.0921 178.112V181.544C82.0921 182.872 82.3241 183.88 82.7881 184.568C83.2521 185.24 83.9721 185.576 84.9481 185.576C86.8521 185.576 87.8041 184.232 87.8041 181.544V178.112ZM99.7166 174.008L103.869 171.68H106.269V188H103.437V174.848L100.989 176.192L99.7166 174.008ZM128.803 178.112V181.544C128.803 183.624 128.315 185.264 127.339 186.464C126.363 187.648 124.931 188.24 123.043 188.24C121.155 188.24 119.723 187.648 118.747 186.464C117.771 185.264 117.283 183.624 117.283 181.544V178.112C117.283 176.032 117.771 174.4 118.747 173.216C119.723 172.032 121.155 171.44 123.043 171.44C124.931 171.44 126.363 172.032 127.339 173.216C128.315 174.4 128.803 176.032 128.803 178.112ZM125.899 178.112C125.899 175.44 124.947 174.104 123.043 174.104C122.067 174.104 121.347 174.44 120.883 175.112C120.419 175.784 120.187 176.784 120.187 178.112V181.544C120.187 182.872 120.419 183.88 120.883 184.568C121.347 185.24 122.067 185.576 123.043 185.576C124.947 185.576 125.899 184.232 125.899 181.544V178.112ZM137.812 174.008L141.964 171.68H144.364V188H141.532V174.848L139.084 176.192L137.812 174.008ZM166.899 178.112V181.544C166.899 183.624 166.411 185.264 165.435 186.464C164.459 187.648 163.027 188.24 161.139 188.24C159.251 188.24 157.819 187.648 156.843 186.464C155.867 185.264 155.379 183.624 155.379 181.544V178.112C155.379 176.032 155.867 174.4 156.843 173.216C157.819 172.032 159.251 171.44 161.139 171.44C163.027 171.44 164.459 172.032 165.435 173.216C166.411 174.4 166.899 176.032 166.899 178.112ZM163.995 178.112C163.995 175.44 163.043 174.104 161.139 174.104C160.163 174.104 159.443 174.44 158.979 175.112C158.515 175.784 158.283 176.784 158.283 178.112V181.544C158.283 182.872 158.515 183.88 158.979 184.568C159.443 185.24 160.163 185.576 161.139 185.576C163.043 185.576 163.995 184.232 163.995 181.544V178.112ZM175.907 174.008L180.059 171.68H182.459V188H179.627V174.848L177.179 176.192L175.907 174.008Z" fill="black"/>
<g filter="url(#filter3_d_219_17)">
<circle cx="152" cy="18" r="4" fill="#52FF00"/>
<circle cx="152" cy="18" r="6" stroke="black" stroke-width="4"/>
</g>
<g filter="url(#filter4_d_219_17)">
<circle cx="170" cy="18" r="4" fill="#FFE600"/>
<circle cx="170" cy="18" r="6" stroke="black" stroke-width="4"/>
</g>
<g filter="url(#filter5_d_219_17)">
<circle cx="188" cy="18" r="4" fill="#FF0000"/>
<circle cx="188" cy="18" r="6" stroke="black" stroke-width="4"/>
</g>
<path d="M194 42H200V180.531C199.556 184.701 199 187.985 194 192.478V42Z" fill="#CBCBCB"/>
</g>
<defs>
<filter id="filter0_d_219_17" x="0" y="0" width="208" height="208" filterUnits="userSpaceOnUse" color-interpolation-filters="sRGB">
<feFlood flood-opacity="0" result="BackgroundImageFix"/>
<feColorMatrix in="SourceAlpha" type="matrix" values="0 0 0 0 0 0 0 0 0 0 0 0 0 0 0 0 0 0 127 0" result="hardAlpha"/>
<feOffset dy="4"/>
<feGaussianBlur stdDeviation="2"/>
<feComposite in2="hardAlpha" operator="out"/>
<feColorMatrix type="matrix" values="0 0 0 0 0 0 0 0 0 0 0 0 0 0 0 0 0 0 0.25 0"/>
<feBlend mode="normal" in2="BackgroundImageFix" result="effect1_dropShadow_219_17"/>
<feBlend mode="normal" in="SourceGraphic" in2="effect1_dropShadow_219_17" result="shape"/>
</filter>
<filter id="filter1_d_219_17" x="60" y="0" width="144" height="41.97" filterUnits="userSpaceOnUse" color-interpolation-filters="sRGB">
<feFlood flood-opacity="0" result="BackgroundImageFix"/>
<feColorMatrix in="SourceAlpha" type="matrix" values="0 0 0 0 0 0 0 0 0 0 0 0 0 0 0 0 0 0 127 0" result="hardAlpha"/>
<feOffset dy="2"/>
<feComposite in2="hardAlpha" operator="out"/>
<feColorMatrix type="matrix" values="0 0 0 0 0 0 0 0 0 0 0 0 0 0 0 0 0 0 0.25 0"/>
<feBlend mode="normal" in2="BackgroundImageFix" result="effect1_dropShadow_219_17"/>
<feBlend mode="normal" in="SourceGraphic" in2="effect1_dropShadow_219_17" result="shape"/>
</filter>
<filter id="filter2_d_219_17" x="24" y="24" width="30" height="5" filterUnits="userSpaceOnUse" color-interpolation-filters="sRGB">
<feFlood flood-opacity="0" result="BackgroundImageFix"/>
<feColorMatrix in="SourceAlpha" type="matrix" values="0 0 0 0 0 0 0 0 0 0 0 0 0 0 0 0 0 0 127 0" result="hardAlpha"/>
<feOffset dy="1"/>
<feComposite in2="hardAlpha" operator="out"/>
<feColorMatrix type="matrix" values="0 0 0 0 0 0 0 0 0 0 0 0 0 0 0 0 0 0 0.25 0"/>
<feBlend mode="normal" in2="BackgroundImageFix" result="effect1_dropShadow_219_17"/>
<feBlend mode="normal" in="SourceGraphic" in2="effect1_dropShadow_219_17" result="shape"/>
</filter>
<filter id="filter3_d_219_17" x="144" y="10" width="16" height="18" filterUnits="userSpaceOnUse" color-interpolation-filters="sRGB">
<feFlood flood-opacity="0" result="BackgroundImageFix"/>
<feColorMatrix in="SourceAlpha" type="matrix" values="0 0 0 0 0 0 0 0 0 0 0 0 0 0 0 0 0 0 127 0" result="hardAlpha"/>
<feOffset dy="2"/>
<feComposite in2="hardAlpha" operator="out"/>
<feColorMatrix type="matrix" values="0 0 0 0 0 0 0 0 0 0 0 0 0 0 0 0 0 0 0.25 0"/>
<feBlend mode="normal" in2="BackgroundImageFix" result="effect1_dropShadow_219_17"/>
<feBlend mode="normal" in="SourceGraphic" in2="effect1_dropShadow_219_17" result="shape"/>
</filter>
<filter id="filter4_d_219_17" x="162" y="10" width="16" height="18" filterUnits="userSpaceOnUse" color-interpolation-filters="sRGB">
<feFlood flood-opacity="0" result="BackgroundImageFix"/>
<feColorMatrix in="SourceAlpha" type="matrix" values="0 0 0 0 0 0 0 0 0 0 0 0 0 0 0 0 0 0 127 0" result="hardAlpha"/>
<feOffset dy="2"/>
<feComposite in2="hardAlpha" operator="out"/>
<feColorMatrix type="matrix" values="0 0 0 0 0 0 0 0 0 0 0 0 0 0 0 0 0 0 0.25 0"/>
<feBlend mode="normal" in2="BackgroundImageFix" result="effect1_dropShadow_219_17"/>
<feBlend mode="normal" in="SourceGraphic" in2="effect1_dropShadow_219_17" result="shape"/>
</filter>
<filter id="filter5_d_219_17" x="180" y="10" width="16" height="18" filterUnits="userSpaceOnUse" color-interpolation-filters="sRGB">
<feFlood flood-opacity="0" result="BackgroundImageFix"/>
<feColorMatrix in="SourceAlpha" type="matrix" values="0 0 0 0 0 0 0 0 0 0 0 0 0 0 0 0 0 0 127 0" result="hardAlpha"/>
<feOffset dy="2"/>
<feComposite in2="hardAlpha" operator="out"/>
<feColorMatrix type="matrix" values="0 0 0 0 0 0 0 0 0 0 0 0 0 0 0 0 0 0 0.25 0"/>
<feBlend mode="normal" in2="BackgroundImageFix" result="effect1_dropShadow_219_17"/>
<feBlend mode="normal" in="SourceGraphic" in2="effect1_dropShadow_219_17" result="shape"/>
</filter>
</defs>
</svg>
