<svg width="111" height="126" viewBox="0 0 111 126" fill="none" xmlns="http://www.w3.org/2000/svg">
<path d="M10.1761 112.95L0.12207 0.179016L110.602 0.179016L100.538 112.933L55.2951 125.476L10.1761 112.95Z" fill="#1572B6"/>
<path d="M55.3631 115.889L91.9221 105.753L100.523 9.39902L55.3631 9.39902V115.889Z" fill="#33A9DC"/>
<path d="M55.3631 50.256H73.6651L74.9291 36.093H55.3631V22.262H90.0451L86.3131 64.087H55.3631V50.256Z" fill="white"/>
<path d="M55.4451 86.176L55.3841 86.194L39.9811 82.035L38.9961 71.004H25.1141L27.0511 92.721L55.3821 100.584L55.4451 100.566V86.176Z" fill="#EBEBEB"/>
<path d="M72.4891 63.502L70.8231 82.024L55.3971 86.188V100.578L83.7511 92.72L86.3651 63.502H72.4891Z" fill="white"/>
<path d="M55.4101 22.262V36.093H22.0021L20.7641 22.262H55.4101ZM55.3631 50.258V64.089H40.1541L39.2461 53.969L38.9161 50.258H55.3631Z" fill="#EBEBEB"/>
</svg>
