<svg width="134" height="200" viewBox="0 0 134 200" fill="none" xmlns="http://www.w3.org/2000/svg">
<path d="M33.3333 200C51.7829 200 66.6667 185.116 66.6667 166.667V133.333H33.3333C14.8837 133.333 0 148.217 0 166.667C0 185.116 14.8837 200 33.3333 200Z" fill="#0ACF83"/>
<path d="M0 100C0 81.5504 14.8837 66.6667 33.3333 66.6667H66.6667V133.333H33.3333C14.8837 133.333 0 118.45 0 100Z" fill="#A259FF"/>
<path d="M0 33.3333C0 14.8837 14.8837 0 33.3333 0H66.6667V66.6667H33.3333C14.8837 66.6667 0 51.7829 0 33.3333Z" fill="#F24E1E"/>
<path d="M66.6667 0H100C118.45 0 133.333 14.8837 133.333 33.3333C133.333 51.7829 118.45 66.6667 100 66.6667H66.6667V0Z" fill="#FF7262"/>
<path d="M133.333 100C133.333 118.45 118.45 133.333 100 133.333C81.5504 133.333 66.6667 118.45 66.6667 100C66.6667 81.5504 81.5504 66.6667 100 66.6667C118.45 66.6667 133.333 81.5504 133.333 100Z" fill="#1ABCFE"/>
</svg>
