<svg width="204" height="200" viewBox="0 0 204 200" fill="none" xmlns="http://www.w3.org/2000/svg">
<rect width="202.959" height="200" rx="41.4201" fill="white"/>
<path d="M55.3267 163.609C90.2379 169.527 106.102 113.681 86.0959 72.4851C84.3203 65.0887 95.8588 61.5384 98.5219 65.3845C131.954 127.219 89.6444 189.645 52.9584 177.811C43.9285 170.28 44.4992 167.09 55.3267 163.609Z" fill="#00D1C1"/>
<path fill-rule="evenodd" clip-rule="evenodd" d="M86.0945 98.8129C81.2128 99.3958 76.5531 100.021 75.7395 100.203C64.7838 102.643 59.5306 104.431 52.6341 108.067C35.9004 116.89 27.2188 129.821 27.2188 145.919C27.2188 155.637 30.085 162.586 36.8495 169.27C41.1483 173.518 47.3898 177.098 51.775 177.831C54.0903 178.218 54.1128 178.205 52.8069 177.243C51.001 175.912 49.7034 173.253 49.7063 170.887C49.7093 168.314 51.7093 165.122 53.8176 164.327L55.5057 163.689L52.7531 162.412C49.3241 160.821 45.0051 156.673 43.5276 153.55C42.8998 152.225 42.2927 149.361 42.1466 147.041C41.527 137.177 47.6543 127.773 59.0122 121.158C70.8501 114.264 85.6862 111.869 116.716 111.843L126.035 111.834V104.734V97.6331L110.503 97.6928C99.6051 97.7348 92.3217 98.0686 86.0945 98.8129ZM135.13 98.9644C135.326 99.697 135.49 102.882 135.494 106.043L135.503 111.79L148.521 111.96L161.539 112.13L161.539 104.882L161.538 97.6331H148.155H134.773L135.13 98.9644ZM170.414 105.208V112.3L180.029 112.65C185.318 112.843 192.625 113.09 196.268 113.2L202.892 113.399L203.073 106.447L203.254 99.494L197.929 99.168C195 98.9887 187.611 98.6786 181.509 98.4786L170.414 98.1147V105.208Z" fill="#007986"/>
<path d="M74.2578 36.0946L87.2757 48.5205C92.897 56.2129 83.4295 63.9052 77.2197 60.3546L64.1995 47.9288C58.5793 39.3489 68.6386 32.5443 74.2578 36.0946Z" fill="#00D1C1"/>
<ellipse cx="50.5917" cy="30.1774" rx="7.98817" ry="7.69231" fill="#00D1C1"/>
</svg>
