<svg width="209" height="186" viewBox="0 0 209 186" fill="none" xmlns="http://www.w3.org/2000/svg">
<path d="M104.147 111.966C114.621 111.966 123.113 103.474 123.113 92.9997C123.113 82.5251 114.621 74.0337 104.147 74.0337C93.672 74.0337 85.1807 82.5251 85.1807 92.9997C85.1807 103.474 93.672 111.966 104.147 111.966Z" fill="#61DAFB"/>
<path d="M176.184 61.7227C172.524 60.3918 168.698 59.0608 164.705 57.8962C165.703 53.9034 166.535 49.9106 167.2 46.0841C170.694 24.1234 166.868 8.65116 156.22 2.6619C153.059 0.831842 149.565 0 145.572 0C133.927 0 119.12 8.65116 104.147 23.1252C89.1735 8.65116 74.3667 0 62.7209 0C58.7281 0 55.2344 0.831842 52.0733 2.6619C41.4258 8.81753 37.5993 24.2898 41.093 46.0841C41.7585 49.9106 42.5903 53.9034 43.5886 57.8962C39.5957 59.0608 35.7692 60.2254 32.1091 61.7227C11.3131 69.7084 0 80.6887 0 93C0 105.311 11.4794 116.292 32.1091 124.277C35.7692 125.608 39.5957 126.939 43.5886 128.104C42.5903 132.097 41.7585 136.089 41.093 139.916C37.5993 161.877 41.4258 177.349 52.0733 183.338C55.2344 185.168 58.7281 186 62.7209 186C74.5331 186 89.3399 177.349 104.147 162.875C119.12 177.349 133.927 186 145.572 186C149.565 186 153.059 185.168 156.22 183.338C166.868 177.182 170.694 161.71 167.2 139.916C166.535 136.089 165.703 132.097 164.705 128.104C168.698 126.939 172.524 125.775 176.184 124.277C196.98 116.292 208.293 105.311 208.293 93C208.293 80.6887 196.98 69.7084 176.184 61.7227V61.7227ZM151.562 10.9803C158.383 14.9732 160.712 27.2844 157.884 44.7531C157.385 48.2469 156.553 51.907 155.555 55.7335C146.903 53.737 137.753 52.4061 128.104 51.5742C122.447 43.5885 116.624 36.4347 110.801 29.9463C123.113 17.8014 135.59 9.483 145.739 9.483C147.902 9.483 149.898 9.98211 151.562 10.9803V10.9803ZM132.928 109.637C129.934 114.961 126.44 120.284 122.78 125.608C116.624 126.107 110.469 126.274 104.147 126.274C97.6583 126.274 91.5027 126.107 85.5134 125.608C81.8533 120.284 78.5259 114.961 75.5313 109.637C72.3703 104.147 69.3757 98.4902 66.7138 93C69.3757 87.5098 72.3703 81.8533 75.5313 76.3631C78.5259 71.0394 82.0197 65.7156 85.6798 60.3918C91.8354 59.8927 97.9911 59.7263 104.313 59.7263C110.801 59.7263 116.957 59.8927 122.946 60.3918C126.606 65.7156 129.934 71.0394 132.928 76.3631C136.089 81.8533 139.084 87.5098 141.746 93C138.918 98.4902 136.089 103.98 132.928 109.637ZM146.737 104.147C149.233 109.97 151.229 115.626 153.059 121.283C147.403 122.614 141.413 123.612 135.091 124.444C137.088 121.283 139.25 117.955 141.08 114.462C143.077 110.968 144.907 107.474 146.737 104.147ZM104.147 149.233C100.154 144.907 96.3274 140.249 92.6673 135.424C96.4937 135.59 100.32 135.757 104.147 135.757C107.973 135.757 111.8 135.59 115.626 135.424C111.966 140.249 108.14 144.907 104.147 149.233ZM73.2021 124.277C66.8801 123.445 60.8909 122.447 55.2343 121.116C57.0644 115.626 59.0608 109.803 61.5564 103.98C63.3864 107.308 65.2165 110.801 67.2129 114.129C69.2093 117.789 71.2057 120.95 73.2021 124.277V124.277ZM61.5564 81.8533C59.0608 76.0304 57.0644 70.3739 55.2343 64.7174C60.8909 63.3864 66.8801 62.3882 73.2021 61.5563C71.2057 64.7173 69.0429 68.0447 67.2129 71.5385C65.2165 75.0322 63.3864 78.5259 61.5564 81.8533V81.8533ZM104.147 36.7674C108.14 41.093 111.966 45.7513 115.626 50.576C111.8 50.4097 107.973 50.2433 104.147 50.2433C100.32 50.2433 96.4937 50.4097 92.6673 50.576C96.3274 45.7513 100.154 41.093 104.147 36.7674ZM141.08 71.7048L135.091 61.7227C141.413 62.5546 147.403 63.5528 153.059 64.8837C151.229 70.3739 149.233 76.1968 146.737 82.0197C144.907 78.5259 143.077 75.0322 141.08 71.7048ZM50.4097 44.7531C47.5814 27.2844 49.9106 14.9732 56.7317 10.9803C58.3953 9.98211 60.3918 9.483 62.5546 9.483C72.5367 9.483 85.0143 17.6351 97.492 29.9463C91.6691 36.2683 85.8462 43.5885 80.1896 51.5742C70.5402 52.4061 61.39 53.9034 52.7388 55.7335C51.7406 51.907 51.0751 48.2469 50.4097 44.7531V44.7531ZM9.31664 93C9.31664 85.1807 18.7996 76.8623 35.4365 70.7066C38.7639 69.3757 42.424 68.2111 46.0841 67.2129C48.746 75.5313 52.0733 84.3488 56.0662 93.1664C52.0733 101.984 48.5796 110.635 46.0841 118.953C23.1252 112.299 9.31664 102.317 9.31664 93ZM56.7317 175.02C49.9106 171.027 47.5814 158.716 50.4097 141.247C50.9088 137.753 51.7406 134.093 52.7388 130.267C61.39 132.263 70.5402 133.594 80.1896 134.426C85.8462 142.411 91.6691 149.565 97.492 156.054C85.1807 168.199 72.703 176.517 62.5546 176.517C60.3918 176.517 58.3953 176.018 56.7317 175.02ZM157.884 141.247C160.712 158.716 158.383 171.027 151.562 175.02C149.898 176.018 147.902 176.517 145.739 176.517C135.757 176.517 123.279 168.365 110.801 156.054C116.624 149.732 122.447 142.411 128.104 134.426C137.753 133.594 146.903 132.097 155.555 130.267C156.553 134.093 157.218 137.753 157.884 141.247V141.247ZM172.857 115.293C169.53 116.624 165.869 117.789 162.209 118.787C159.547 110.469 156.22 101.651 152.227 92.8336C156.22 84.0161 159.714 75.3649 162.209 67.0465C185.168 73.7013 198.977 83.6834 198.977 93C198.977 100.819 189.327 109.138 172.857 115.293Z" fill="#61DAFB"/>
</svg>
