<svg width="438" height="134" viewBox="0 0 438 134" fill="none" xmlns="http://www.w3.org/2000/svg">
<rect width="438" height="134" rx="5" fill="url(#paint0_linear_7_114)"/>
<path fill-rule="evenodd" clip-rule="evenodd" d="M18 22.5C18 21.837 18.2634 21.2011 18.7322 20.7322C19.2011 20.2634 19.837 20 20.5 20H29.25C29.4489 20 29.6397 20.079 29.7803 20.2197C29.921 20.3603 30 20.5511 30 20.75V33.25C30 33.4489 29.921 33.6397 29.7803 33.7803C29.6397 33.921 29.4489 34 29.25 34H26.75C26.5511 34 26.3603 33.921 26.2197 33.7803C26.079 33.6397 26 33.4489 26 33.25C26 33.0511 26.079 32.8603 26.2197 32.7197C26.3603 32.579 26.5511 32.5 26.75 32.5H28.5V30.5H20.5C20.3031 30.5 20.1106 30.5582 19.9466 30.6672C19.7826 30.7762 19.6544 30.9312 19.5782 31.1128C19.5019 31.2943 19.481 31.4943 19.5179 31.6878C19.5549 31.8812 19.6482 32.0594 19.786 32.2C19.9252 32.3422 20.0023 32.5338 20.0002 32.7328C19.9982 32.9318 19.9172 33.1218 19.775 33.261C19.6328 33.4002 19.4412 33.4773 19.2422 33.4752C19.0432 33.4732 18.8532 33.3922 18.714 33.25C18.2557 32.7829 17.9993 32.1544 18 31.5V22.5ZM28.5 21.5V29H20.5C20.144 29 19.806 29.074 19.5 29.208V22.5C19.5 22.2348 19.6054 21.9804 19.7929 21.7929C19.9804 21.6054 20.2348 21.5 20.5 21.5H28.5ZM21 32.25V35.5C21 35.5464 21.0129 35.5919 21.0373 35.6314C21.0617 35.6709 21.0967 35.7028 21.1382 35.7236C21.1797 35.7444 21.2262 35.7532 21.2725 35.749C21.3187 35.7448 21.3629 35.7279 21.4 35.7L22.85 34.613C22.8933 34.5805 22.9459 34.563 23 34.563C23.0541 34.563 23.1067 34.5805 23.15 34.613L24.6 35.7C24.6371 35.7279 24.6813 35.7448 24.7276 35.749C24.7738 35.7532 24.8203 35.7444 24.8618 35.7236C24.9033 35.7028 24.9383 35.6709 24.9627 35.6314C24.9871 35.5919 25 35.5464 25 35.5V32.25C25 32.1837 24.9737 32.1201 24.9268 32.0732C24.8799 32.0263 24.8163 32 24.75 32H21.25C21.1837 32 21.1201 32.0263 21.0732 32.0732C21.0263 32.1201 21 32.1837 21 32.25Z" fill="#AEBBFF"/>
<path d="M43.7236 31.9248C43.4137 32.0798 43.0059 32.1572 42.5 32.1572C41.1419 32.1572 40.4629 31.5055 40.4629 30.2021V26.2441H39.2939V25H40.4629V23.3799L42.0488 22.9287V25H43.7236V26.2441H42.0488V29.7441C42.0488 30.1589 42.124 30.4551 42.2744 30.6328C42.4248 30.8105 42.6755 30.8994 43.0264 30.8994C43.2952 30.8994 43.5277 30.8219 43.7236 30.667V31.9248ZM50.9355 28.9307H46.1641C46.1823 29.5778 46.3805 30.0768 46.7588 30.4277C47.1416 30.7786 47.6657 30.9541 48.3311 30.9541C49.0785 30.9541 49.7643 30.7308 50.3887 30.2842V31.5625C49.7507 31.9635 48.9076 32.1641 47.8594 32.1641C46.8294 32.1641 46.0205 31.8473 45.4326 31.2139C44.8493 30.5758 44.5576 29.6803 44.5576 28.5273C44.5576 27.4382 44.8789 26.5518 45.5215 25.8682C46.1686 25.18 46.9707 24.8359 47.9277 24.8359C48.8848 24.8359 49.6253 25.1436 50.1494 25.7588C50.6735 26.374 50.9355 27.2285 50.9355 28.3223V28.9307ZM49.4043 27.8096C49.3997 27.2399 49.2653 26.7979 49.001 26.4834C48.7367 26.1644 48.3721 26.0049 47.9072 26.0049C47.4515 26.0049 47.0641 26.1712 46.7451 26.5039C46.4307 26.8366 46.237 27.2718 46.1641 27.8096H49.4043ZM52.0088 31.7812V30.3115C52.6012 30.7627 53.2552 30.9883 53.9707 30.9883C54.9277 30.9883 55.4062 30.7057 55.4062 30.1406C55.4062 29.9811 55.3652 29.8467 55.2832 29.7373C55.2012 29.6234 55.0895 29.5231 54.9482 29.4365C54.8115 29.3499 54.6475 29.2725 54.4561 29.2041C54.2692 29.1357 54.0596 29.0583 53.8271 28.9717C53.54 28.8577 53.2803 28.737 53.0479 28.6094C52.82 28.4818 52.6286 28.3382 52.4736 28.1787C52.3232 28.0146 52.2093 27.8301 52.1318 27.625C52.0544 27.4199 52.0156 27.1807 52.0156 26.9072C52.0156 26.57 52.0954 26.2738 52.2549 26.0186C52.4144 25.7588 52.6286 25.5423 52.8975 25.3691C53.1663 25.1914 53.4717 25.0592 53.8135 24.9727C54.1553 24.8815 54.5085 24.8359 54.873 24.8359C55.5202 24.8359 56.099 24.9339 56.6094 25.1299V26.5176C56.1172 26.1803 55.5521 26.0117 54.9141 26.0117C54.7135 26.0117 54.5312 26.0322 54.3672 26.0732C54.2077 26.1143 54.071 26.1712 53.957 26.2441C53.8431 26.3171 53.7542 26.4059 53.6904 26.5107C53.6266 26.611 53.5947 26.7227 53.5947 26.8457C53.5947 26.9961 53.6266 27.1237 53.6904 27.2285C53.7542 27.3333 53.8477 27.4268 53.9707 27.5088C54.0983 27.5863 54.2487 27.6592 54.4219 27.7275C54.5996 27.7913 54.8024 27.862 55.0303 27.9395C55.3311 28.0625 55.5999 28.1878 55.8369 28.3154C56.0785 28.443 56.2835 28.5889 56.4521 28.7529C56.6208 28.9124 56.7507 29.0993 56.8418 29.3135C56.9329 29.5231 56.9785 29.7738 56.9785 30.0654C56.9785 30.4209 56.8965 30.7308 56.7324 30.9951C56.5684 31.2594 56.3496 31.4782 56.0762 31.6514C55.8027 31.8245 55.486 31.9521 55.126 32.0342C54.7705 32.1208 54.3945 32.1641 53.998 32.1641C53.2324 32.1641 52.5693 32.0365 52.0088 31.7812ZM64.8398 32H62.8301L60.1094 28.6367H60.082V32H58.4893V21.6367H60.082V28.2061H60.1094L62.6797 25H64.5869L61.6953 28.377L64.8398 32ZM66.6445 23.5303C66.3848 23.5303 66.1615 23.446 65.9746 23.2773C65.7923 23.1087 65.7012 22.8945 65.7012 22.6348C65.7012 22.375 65.7923 22.1585 65.9746 21.9854C66.1615 21.8122 66.3848 21.7256 66.6445 21.7256C66.9134 21.7256 67.1413 21.8122 67.3281 21.9854C67.515 22.1585 67.6084 22.375 67.6084 22.6348C67.6084 22.8809 67.515 23.0928 67.3281 23.2705C67.1413 23.4437 66.9134 23.5303 66.6445 23.5303ZM67.4307 32H65.8447V25H67.4307V32ZM74.8818 32H73.3438V30.9062H73.3164C72.8333 31.7448 72.1247 32.1641 71.1904 32.1641C70.5023 32.1641 69.9622 31.9772 69.5703 31.6035C69.1829 31.2298 68.9893 30.7354 68.9893 30.1201C68.9893 28.7985 69.7503 28.0283 71.2725 27.8096L73.3506 27.5156C73.3506 26.5176 72.8766 26.0186 71.9287 26.0186C71.0947 26.0186 70.3428 26.3057 69.6729 26.8799V25.4922C70.4111 25.0547 71.2633 24.8359 72.2295 24.8359C73.9977 24.8359 74.8818 25.7064 74.8818 27.4473V32ZM73.3506 28.5615L71.8809 28.7666C71.4251 28.8258 71.0811 28.9375 70.8486 29.1016C70.6208 29.2611 70.5068 29.5436 70.5068 29.9492C70.5068 30.2454 70.6117 30.4893 70.8213 30.6807C71.0355 30.8675 71.3203 30.9609 71.6758 30.9609C72.1589 30.9609 72.5576 30.7923 72.8721 30.4551C73.1911 30.1133 73.3506 29.6849 73.3506 29.1699V28.5615ZM83.0576 32H81.4717V28.0557C81.4717 26.7477 81.0091 26.0938 80.084 26.0938C79.6009 26.0938 79.2021 26.276 78.8877 26.6406C78.5732 27.0007 78.416 27.4564 78.416 28.0078V32H76.8232V25H78.416V26.1621H78.4434C78.9674 25.278 79.724 24.8359 80.7129 24.8359C81.474 24.8359 82.055 25.0843 82.4561 25.5811C82.8571 26.0732 83.0576 26.7865 83.0576 27.7207V32ZM91.3633 32H89.7773V30.8105H89.75C89.2396 31.7129 88.4535 32.1641 87.3916 32.1641C86.5303 32.1641 85.8398 31.8519 85.3203 31.2275C84.8053 30.5986 84.5479 29.7441 84.5479 28.6641C84.5479 27.5065 84.8327 26.5791 85.4023 25.8818C85.9766 25.1846 86.7399 24.8359 87.6924 24.8359C88.6357 24.8359 89.3216 25.2142 89.75 25.9707H89.7773V21.6367H91.3633V32ZM89.7979 28.8008V27.8848C89.7979 27.388 89.6361 26.9665 89.3125 26.6201C88.9889 26.2738 88.5765 26.1006 88.0752 26.1006C87.4827 26.1006 87.0156 26.3216 86.6738 26.7637C86.3366 27.2057 86.168 27.8187 86.168 28.6025C86.168 29.3135 86.3298 29.8763 86.6533 30.291C86.9814 30.7012 87.4212 30.9062 87.9727 30.9062C88.515 30.9062 88.9548 30.708 89.292 30.3115C89.6292 29.9105 89.7979 29.4069 89.7979 28.8008ZM96.5381 32.1641C95.458 32.1641 94.5944 31.8382 93.9473 31.1865C93.3047 30.5303 92.9834 29.6621 92.9834 28.582C92.9834 27.4062 93.3184 26.488 93.9883 25.8271C94.6628 25.1663 95.5697 24.8359 96.709 24.8359C97.8027 24.8359 98.6549 25.1572 99.2656 25.7998C99.8763 26.4424 100.182 27.3333 100.182 28.4727C100.182 29.5892 99.8512 30.4847 99.1904 31.1592C98.5342 31.8291 97.6501 32.1641 96.5381 32.1641ZM96.6133 26.1006C95.9935 26.1006 95.5036 26.3171 95.1436 26.75C94.7835 27.1829 94.6035 27.7799 94.6035 28.541C94.6035 29.2747 94.7858 29.8535 95.1504 30.2773C95.515 30.6966 96.0026 30.9062 96.6133 30.9062C97.2376 30.9062 97.7161 30.6989 98.0488 30.2842C98.3861 29.8695 98.5547 29.2793 98.5547 28.5137C98.5547 27.7435 98.3861 27.1488 98.0488 26.7295C97.7161 26.3102 97.2376 26.1006 96.6133 26.1006ZM105.486 28.7598H101.754V27.5908H105.486V28.7598ZM109.048 30.9883H109.021V32H107.435V21.6367H109.021V26.2305H109.048C109.59 25.3008 110.383 24.8359 111.427 24.8359C112.311 24.8359 113.001 25.1504 113.498 25.7793C113.999 26.4036 114.25 27.2422 114.25 28.2949C114.25 29.4661 113.97 30.4049 113.409 31.1113C112.849 31.8132 112.083 32.1641 111.112 32.1641C110.201 32.1641 109.513 31.7721 109.048 30.9883ZM109.007 28.2061V29.0742C109.007 29.5846 109.169 30.0176 109.492 30.373C109.82 30.7285 110.235 30.9062 110.736 30.9062C111.324 30.9062 111.785 30.6784 112.117 30.2227C112.454 29.7624 112.623 29.1221 112.623 28.3018C112.623 27.6136 112.466 27.0758 112.151 26.6885C111.841 26.2965 111.42 26.1006 110.887 26.1006C110.322 26.1006 109.866 26.3011 109.52 26.7021C109.178 27.1032 109.007 27.6045 109.007 28.2061ZM121.079 32H119.541V30.9062H119.514C119.031 31.7448 118.322 32.1641 117.388 32.1641C116.7 32.1641 116.16 31.9772 115.768 31.6035C115.38 31.2298 115.187 30.7354 115.187 30.1201C115.187 28.7985 115.948 28.0283 117.47 27.8096L119.548 27.5156C119.548 26.5176 119.074 26.0186 118.126 26.0186C117.292 26.0186 116.54 26.3057 115.87 26.8799V25.4922C116.608 25.0547 117.461 24.8359 118.427 24.8359C120.195 24.8359 121.079 25.7064 121.079 27.4473V32ZM119.548 28.5615L118.078 28.7666C117.622 28.8258 117.278 28.9375 117.046 29.1016C116.818 29.2611 116.704 29.5436 116.704 29.9492C116.704 30.2454 116.809 30.4893 117.019 30.6807C117.233 30.8675 117.518 30.9609 117.873 30.9609C118.356 30.9609 118.755 30.7923 119.069 30.4551C119.388 30.1133 119.548 29.6849 119.548 29.1699V28.5615ZM128.031 31.6787C127.471 32.0023 126.808 32.1641 126.042 32.1641C125.003 32.1641 124.164 31.8405 123.526 31.1934C122.888 30.5417 122.569 29.6986 122.569 28.6641C122.569 27.5111 122.911 26.5859 123.595 25.8887C124.283 25.1868 125.201 24.8359 126.35 24.8359C126.988 24.8359 127.55 24.9476 128.038 25.1709V26.6475C127.55 26.2829 127.031 26.1006 126.479 26.1006C125.81 26.1006 125.26 26.3285 124.832 26.7842C124.404 27.2354 124.189 27.8278 124.189 28.5615C124.189 29.2861 124.39 29.8581 124.791 30.2773C125.197 30.6966 125.739 30.9062 126.418 30.9062C126.988 30.9062 127.525 30.7035 128.031 30.2979V31.6787ZM135.961 32H133.951L131.23 28.6367H131.203V32H129.61V21.6367H131.203V28.2061H131.23L133.801 25H135.708L132.816 28.377L135.961 32ZM139.775 28.7598H136.043V27.5908H139.775V28.7598ZM147.65 28.9307H142.879C142.897 29.5778 143.095 30.0768 143.474 30.4277C143.856 30.7786 144.381 30.9541 145.046 30.9541C145.793 30.9541 146.479 30.7308 147.104 30.2842V31.5625C146.465 31.9635 145.622 32.1641 144.574 32.1641C143.544 32.1641 142.735 31.8473 142.147 31.2139C141.564 30.5758 141.272 29.6803 141.272 28.5273C141.272 27.4382 141.594 26.5518 142.236 25.8682C142.883 25.18 143.686 24.8359 144.643 24.8359C145.6 24.8359 146.34 25.1436 146.864 25.7588C147.388 26.374 147.65 27.2285 147.65 28.3223V28.9307ZM146.119 27.8096C146.115 27.2399 145.98 26.7979 145.716 26.4834C145.451 26.1644 145.087 26.0049 144.622 26.0049C144.166 26.0049 143.779 26.1712 143.46 26.5039C143.146 26.8366 142.952 27.2718 142.879 27.8096H146.119ZM155.396 32H153.81V28.0557C153.81 26.7477 153.347 26.0938 152.422 26.0938C151.939 26.0938 151.54 26.276 151.226 26.6406C150.911 27.0007 150.754 27.4564 150.754 28.0078V32H149.161V25H150.754V26.1621H150.781C151.305 25.278 152.062 24.8359 153.051 24.8359C153.812 24.8359 154.393 25.0843 154.794 25.5811C155.195 26.0732 155.396 26.7865 155.396 27.7207V32ZM163.701 32H162.115V30.8105H162.088C161.577 31.7129 160.791 32.1641 159.729 32.1641C158.868 32.1641 158.178 31.8519 157.658 31.2275C157.143 30.5986 156.886 29.7441 156.886 28.6641C156.886 27.5065 157.171 26.5791 157.74 25.8818C158.314 25.1846 159.078 24.8359 160.03 24.8359C160.974 24.8359 161.66 25.2142 162.088 25.9707H162.115V21.6367H163.701V32ZM162.136 28.8008V27.8848C162.136 27.388 161.974 26.9665 161.65 26.6201C161.327 26.2738 160.914 26.1006 160.413 26.1006C159.821 26.1006 159.354 26.3216 159.012 26.7637C158.674 27.2057 158.506 27.8187 158.506 28.6025C158.506 29.3135 158.668 29.8763 158.991 30.291C159.319 30.7012 159.759 30.9062 160.311 30.9062C160.853 30.9062 161.293 30.708 161.63 30.3115C161.967 29.9105 162.136 29.4069 162.136 28.8008Z" fill="#AEBBFF"/>
<g clip-path="url(#clip0_7_114)">
<path fill-rule="evenodd" clip-rule="evenodd" d="M342.717 16.4741L413.867 -0.381481C426.965 -3.48451 440.104 4.63837 443.212 17.7615L460.1 89.046C463.209 102.169 455.111 115.323 442.012 118.426L370.862 135.282C357.764 138.385 344.626 130.262 341.517 117.139L324.629 45.8542C321.52 32.731 329.618 19.5771 342.717 16.4741ZM420.966 17.4352L443.352 34.1369L382.646 115.822L360.26 99.1201L360.341 99.0105L335.301 80.329L350.421 59.984L375.461 78.6655L420.966 17.4352Z" fill="#3051FF"/>
</g>
<path d="M23.9395 59H22.4102L21.6543 56.8613H18.3496L17.623 59H16.0996L19.2461 50.5977H20.8164L23.9395 59ZM21.2852 55.7246L20.1191 52.373C20.084 52.2637 20.0469 52.0879 20.0078 51.8457H19.9844C19.9492 52.0684 19.9102 52.2441 19.8672 52.373L18.7129 55.7246H21.2852ZM26.3301 58.1152H26.3066V61.7598H24.9473V53H26.3066V54.0547H26.3301C26.7949 53.2578 27.4746 52.8594 28.3691 52.8594C29.1309 52.8594 29.7246 53.127 30.1504 53.6621C30.5762 54.1973 30.7891 54.916 30.7891 55.8184C30.7891 56.8184 30.5488 57.6191 30.0684 58.2207C29.5879 58.8223 28.9316 59.123 28.0996 59.123C27.334 59.123 26.7441 58.7871 26.3301 58.1152ZM26.2949 55.748V56.4922C26.2949 56.9297 26.4336 57.3008 26.7109 57.6055C26.9922 57.9102 27.3477 58.0625 27.7773 58.0625C28.2812 58.0625 28.6758 57.8672 28.9609 57.4766C29.25 57.082 29.3945 56.5332 29.3945 55.8301C29.3945 55.2402 29.2598 54.7793 28.9902 54.4473C28.7246 54.1113 28.3633 53.9434 27.9062 53.9434C27.4219 53.9434 27.0312 54.1152 26.7344 54.459C26.4414 54.8027 26.2949 55.2324 26.2949 55.748ZM33.543 59H32.1777V50.1172H33.543V59ZM36.0039 51.7402C35.7812 51.7402 35.5898 51.668 35.4297 51.5234C35.2734 51.3789 35.1953 51.1953 35.1953 50.9727C35.1953 50.75 35.2734 50.5645 35.4297 50.416C35.5898 50.2676 35.7812 50.1934 36.0039 50.1934C36.2344 50.1934 36.4297 50.2676 36.5898 50.416C36.75 50.5645 36.8301 50.75 36.8301 50.9727C36.8301 51.1836 36.75 51.3652 36.5898 51.5176C36.4297 51.666 36.2344 51.7402 36.0039 51.7402ZM36.6777 59H35.3184V53H36.6777V59ZM42.7539 58.7246C42.2734 59.002 41.7051 59.1406 41.0488 59.1406C40.1582 59.1406 39.4395 58.8633 38.8926 58.3086C38.3457 57.75 38.0723 57.0273 38.0723 56.1406C38.0723 55.1523 38.3652 54.3594 38.9512 53.7617C39.541 53.1602 40.3281 52.8594 41.3125 52.8594C41.8594 52.8594 42.3418 52.9551 42.7598 53.1465V54.4121C42.3418 54.0996 41.8965 53.9434 41.4238 53.9434C40.8496 53.9434 40.3789 54.1387 40.0117 54.5293C39.6445 54.916 39.4609 55.4238 39.4609 56.0527C39.4609 56.6738 39.6328 57.1641 39.9766 57.5234C40.3242 57.8828 40.7891 58.0625 41.3711 58.0625C41.8594 58.0625 42.3203 57.8887 42.7539 57.541V58.7246ZM48.7129 59H47.3945V58.0625H47.3711C46.957 58.7812 46.3496 59.1406 45.5488 59.1406C44.959 59.1406 44.4961 58.9805 44.1602 58.6602C43.8281 58.3398 43.6621 57.916 43.6621 57.3887C43.6621 56.2559 44.3145 55.5957 45.6191 55.4082L47.4004 55.1562C47.4004 54.3008 46.9941 53.873 46.1816 53.873C45.4668 53.873 44.8223 54.1191 44.248 54.6113V53.4219C44.8809 53.0469 45.6113 52.8594 46.4395 52.8594C47.9551 52.8594 48.7129 53.6055 48.7129 55.0977V59ZM47.4004 56.0527L46.1406 56.2285C45.75 56.2793 45.4551 56.375 45.2559 56.5156C45.0605 56.6523 44.9629 56.8945 44.9629 57.2422C44.9629 57.4961 45.0527 57.7051 45.2324 57.8691C45.416 58.0293 45.6602 58.1094 45.9648 58.1094C46.3789 58.1094 46.7207 57.9648 46.9902 57.6758C47.2637 57.3828 47.4004 57.0156 47.4004 56.5742V56.0527ZM54.6719 58.7246C54.1914 59.002 53.623 59.1406 52.9668 59.1406C52.0762 59.1406 51.3574 58.8633 50.8105 58.3086C50.2637 57.75 49.9902 57.0273 49.9902 56.1406C49.9902 55.1523 50.2832 54.3594 50.8691 53.7617C51.459 53.1602 52.2461 52.8594 53.2305 52.8594C53.7773 52.8594 54.2598 52.9551 54.6777 53.1465V54.4121C54.2598 54.0996 53.8145 53.9434 53.3418 53.9434C52.7676 53.9434 52.2969 54.1387 51.9297 54.5293C51.5625 54.916 51.3789 55.4238 51.3789 56.0527C51.3789 56.6738 51.5508 57.1641 51.8945 57.5234C52.2422 57.8828 52.707 58.0625 53.2891 58.0625C53.7773 58.0625 54.2383 57.8887 54.6719 57.541V58.7246ZM54.1855 60.4531C54.1855 61.2109 53.623 61.5898 52.498 61.5898C52.3145 61.5898 52.1562 61.584 52.0234 61.5723V60.9219C52.1953 60.9453 52.334 60.957 52.4395 60.957C52.959 60.957 53.2188 60.7969 53.2188 60.4766C53.2188 60.1875 52.9824 60.043 52.5098 60.043C52.4707 60.043 52.3945 60.0508 52.2812 60.0664V59H53.0781V59.5508C53.418 59.5508 53.6875 59.6289 53.8867 59.7852C54.0859 59.9453 54.1855 60.168 54.1855 60.4531ZM60.6309 59H59.3125V58.0625H59.2891C58.875 58.7812 58.2676 59.1406 57.4668 59.1406C56.877 59.1406 56.4141 58.9805 56.0781 58.6602C55.7461 58.3398 55.5801 57.916 55.5801 57.3887C55.5801 56.2559 56.2324 55.5957 57.5371 55.4082L59.3184 55.1562C59.3184 54.3008 58.9121 53.873 58.0996 53.873C57.3848 53.873 56.7402 54.1191 56.166 54.6113V53.4219C56.7988 53.0469 57.5293 52.8594 58.3574 52.8594C59.873 52.8594 60.6309 53.6055 60.6309 55.0977V59ZM59.3184 56.0527L58.0586 56.2285C57.668 56.2793 57.373 56.375 57.1738 56.5156C56.9785 56.6523 56.8809 56.8945 56.8809 57.2422C56.8809 57.4961 56.9707 57.7051 57.1504 57.8691C57.334 58.0293 57.5781 58.1094 57.8828 58.1094C58.2969 58.1094 58.6387 57.9648 58.9082 57.6758C59.1816 57.3828 59.3184 57.0156 59.3184 56.5742V56.0527ZM60.25 50.3574C60.25 50.8105 60.1484 51.1816 59.9453 51.4707C59.7461 51.7559 59.4746 51.8984 59.1309 51.8984C58.8496 51.8984 58.5273 51.8047 58.1641 51.6172C57.8594 51.4414 57.623 51.3535 57.4551 51.3535C57.127 51.3535 56.9629 51.5703 56.9629 52.0039H56.2891C56.2891 51.5391 56.3887 51.168 56.5879 50.8906C56.7871 50.6094 57.0664 50.4688 57.4258 50.4688C57.6914 50.4688 57.998 50.5684 58.3457 50.7676C58.627 50.9395 58.8711 51.0254 59.0781 51.0254C59.3945 51.0254 59.5527 50.8027 59.5527 50.3574H60.25ZM64.9551 59.1406C64.0293 59.1406 63.2891 58.8613 62.7344 58.3027C62.1836 57.7402 61.9082 56.9961 61.9082 56.0703C61.9082 55.0625 62.1953 54.2754 62.7695 53.709C63.3477 53.1426 64.125 52.8594 65.1016 52.8594C66.0391 52.8594 66.7695 53.1348 67.293 53.6855C67.8164 54.2363 68.0781 55 68.0781 55.9766C68.0781 56.9336 67.7949 57.7012 67.2285 58.2793C66.666 58.8535 65.9082 59.1406 64.9551 59.1406ZM65.0195 53.9434C64.4883 53.9434 64.0684 54.1289 63.7598 54.5C63.4512 54.8711 63.2969 55.3828 63.2969 56.0352C63.2969 56.6641 63.4531 57.1602 63.7656 57.5234C64.0781 57.8828 64.4961 58.0625 65.0195 58.0625C65.5547 58.0625 65.9648 57.8848 66.25 57.5293C66.5391 57.1738 66.6836 56.668 66.6836 56.0117C66.6836 55.3516 66.5391 54.8418 66.25 54.4824C65.9648 54.123 65.5547 53.9434 65.0195 53.9434ZM78.2266 59H76.8672V57.9805H76.8438C76.4062 58.7539 75.7324 59.1406 74.8223 59.1406C74.084 59.1406 73.4922 58.873 73.0469 58.3379C72.6055 57.7988 72.3848 57.0664 72.3848 56.1406C72.3848 55.1484 72.6289 54.3535 73.1172 53.7559C73.6094 53.1582 74.2637 52.8594 75.0801 52.8594C75.8887 52.8594 76.4766 53.1836 76.8438 53.832H76.8672V50.1172H78.2266V59ZM76.8848 56.2578V55.4727C76.8848 55.0469 76.7461 54.6855 76.4688 54.3887C76.1914 54.0918 75.8379 53.9434 75.4082 53.9434C74.9004 53.9434 74.5 54.1328 74.207 54.5117C73.918 54.8906 73.7734 55.416 73.7734 56.0879C73.7734 56.6973 73.9121 57.1797 74.1895 57.5352C74.4707 57.8867 74.8477 58.0625 75.3203 58.0625C75.7852 58.0625 76.1621 57.8926 76.4512 57.5527C76.7402 57.209 76.8848 56.7773 76.8848 56.2578ZM85.082 56.3691H80.9922C81.0078 56.9238 81.1777 57.3516 81.502 57.6523C81.8301 57.9531 82.2793 58.1035 82.8496 58.1035C83.4902 58.1035 84.0781 57.9121 84.6133 57.5293V58.625C84.0664 58.9688 83.3438 59.1406 82.4453 59.1406C81.5625 59.1406 80.8691 58.8691 80.3652 58.3262C79.8652 57.7793 79.6152 57.0117 79.6152 56.0234C79.6152 55.0898 79.8906 54.3301 80.4414 53.7441C80.9961 53.1543 81.6836 52.8594 82.5039 52.8594C83.3242 52.8594 83.959 53.123 84.4082 53.6504C84.8574 54.1777 85.082 54.9102 85.082 55.8477V56.3691ZM83.7695 55.4082C83.7656 54.9199 83.6504 54.541 83.4238 54.2715C83.1973 53.998 82.8848 53.8613 82.4863 53.8613C82.0957 53.8613 81.7637 54.0039 81.4902 54.2891C81.2207 54.5742 81.0547 54.9473 80.9922 55.4082H83.7695ZM86.002 58.8125V57.5527C86.5098 57.9395 87.0703 58.1328 87.6836 58.1328C88.5039 58.1328 88.9141 57.8906 88.9141 57.4062C88.9141 57.2695 88.8789 57.1543 88.8086 57.0605C88.7383 56.9629 88.6426 56.877 88.5215 56.8027C88.4043 56.7285 88.2637 56.6621 88.0996 56.6035C87.9395 56.5449 87.7598 56.4785 87.5605 56.4043C87.3145 56.3066 87.0918 56.2031 86.8926 56.0938C86.6973 55.9844 86.5332 55.8613 86.4004 55.7246C86.2715 55.584 86.1738 55.4258 86.1074 55.25C86.041 55.0742 86.0078 54.8691 86.0078 54.6348C86.0078 54.3457 86.0762 54.0918 86.2129 53.873C86.3496 53.6504 86.5332 53.4648 86.7637 53.3164C86.9941 53.1641 87.2559 53.0508 87.5488 52.9766C87.8418 52.8984 88.1445 52.8594 88.457 52.8594C89.0117 52.8594 89.5078 52.9434 89.9453 53.1113V54.3008C89.5234 54.0117 89.0391 53.8672 88.4922 53.8672C88.3203 53.8672 88.1641 53.8848 88.0234 53.9199C87.8867 53.9551 87.7695 54.0039 87.6719 54.0664C87.5742 54.1289 87.498 54.2051 87.4434 54.2949C87.3887 54.3809 87.3613 54.4766 87.3613 54.582C87.3613 54.7109 87.3887 54.8203 87.4434 54.9102C87.498 55 87.5781 55.0801 87.6836 55.1504C87.793 55.2168 87.9219 55.2793 88.0703 55.3379C88.2227 55.3926 88.3965 55.4531 88.5918 55.5195C88.8496 55.625 89.0801 55.7324 89.2832 55.8418C89.4902 55.9512 89.666 56.0762 89.8105 56.2168C89.9551 56.3535 90.0664 56.5137 90.1445 56.6973C90.2227 56.877 90.2617 57.0918 90.2617 57.3418C90.2617 57.6465 90.1914 57.9121 90.0508 58.1387C89.9102 58.3652 89.7227 58.5527 89.4883 58.7012C89.2539 58.8496 88.9824 58.959 88.6738 59.0293C88.3691 59.1035 88.0469 59.1406 87.707 59.1406C87.0508 59.1406 86.4824 59.0312 86.002 58.8125ZM96.6367 56.3691H92.5469C92.5625 56.9238 92.7324 57.3516 93.0566 57.6523C93.3848 57.9531 93.834 58.1035 94.4043 58.1035C95.0449 58.1035 95.6328 57.9121 96.168 57.5293V58.625C95.6211 58.9688 94.8984 59.1406 94 59.1406C93.1172 59.1406 92.4238 58.8691 91.9199 58.3262C91.4199 57.7793 91.1699 57.0117 91.1699 56.0234C91.1699 55.0898 91.4453 54.3301 91.9961 53.7441C92.5508 53.1543 93.2383 52.8594 94.0586 52.8594C94.8789 52.8594 95.5137 53.123 95.9629 53.6504C96.4121 54.1777 96.6367 54.9102 96.6367 55.8477V56.3691ZM95.3242 55.4082C95.3203 54.9199 95.2051 54.541 94.9785 54.2715C94.752 53.998 94.4395 53.8613 94.041 53.8613C93.6504 53.8613 93.3184 54.0039 93.0449 54.2891C92.7754 54.5742 92.6094 54.9473 92.5469 55.4082H95.3242ZM103.275 59H101.916V55.6191C101.916 54.498 101.52 53.9375 100.727 53.9375C100.312 53.9375 99.9707 54.0938 99.7012 54.4062C99.4316 54.7148 99.2969 55.1055 99.2969 55.5781V59H97.9316V53H99.2969V53.9961H99.3203C99.7695 53.2383 100.418 52.8594 101.266 52.8594C101.918 52.8594 102.416 53.0723 102.76 53.498C103.104 53.9199 103.275 54.5312 103.275 55.332V59ZM110.107 53L107.787 59H106.316L104.107 53H105.584L106.914 57.1953C107.016 57.5039 107.078 57.7734 107.102 58.0039H107.119C107.154 57.7148 107.209 57.4531 107.283 57.2188L108.678 53H110.107ZM113.6 59.1406C112.674 59.1406 111.934 58.8613 111.379 58.3027C110.828 57.7402 110.553 56.9961 110.553 56.0703C110.553 55.0625 110.84 54.2754 111.414 53.709C111.992 53.1426 112.77 52.8594 113.746 52.8594C114.684 52.8594 115.414 53.1348 115.938 53.6855C116.461 54.2363 116.723 55 116.723 55.9766C116.723 56.9336 116.439 57.7012 115.873 58.2793C115.311 58.8535 114.553 59.1406 113.6 59.1406ZM113.664 53.9434C113.133 53.9434 112.713 54.1289 112.404 54.5C112.096 54.8711 111.941 55.3828 111.941 56.0352C111.941 56.6641 112.098 57.1602 112.41 57.5234C112.723 57.8828 113.141 58.0625 113.664 58.0625C114.199 58.0625 114.609 57.8848 114.895 57.5293C115.184 57.1738 115.328 56.668 115.328 56.0117C115.328 55.3516 115.184 54.8418 114.895 54.4824C114.609 54.123 114.199 53.9434 113.664 53.9434ZM119.477 59H118.111V50.1172H119.477V59ZM126.42 53L124.1 59H122.629L120.42 53H121.896L123.227 57.1953C123.328 57.5039 123.391 57.7734 123.414 58.0039H123.432C123.467 57.7148 123.521 57.4531 123.596 57.2188L124.99 53H126.42ZM128.031 51.7402C127.809 51.7402 127.617 51.668 127.457 51.5234C127.301 51.3789 127.223 51.1953 127.223 50.9727C127.223 50.75 127.301 50.5645 127.457 50.416C127.617 50.2676 127.809 50.1934 128.031 50.1934C128.262 50.1934 128.457 50.2676 128.617 50.416C128.777 50.5645 128.857 50.75 128.857 50.9727C128.857 51.1836 128.777 51.3652 128.617 51.5176C128.457 51.666 128.262 51.7402 128.031 51.7402ZM128.705 59H127.346V53H128.705V59ZM135.941 59H134.582V57.9805H134.559C134.121 58.7539 133.447 59.1406 132.537 59.1406C131.799 59.1406 131.207 58.873 130.762 58.3379C130.32 57.7988 130.1 57.0664 130.1 56.1406C130.1 55.1484 130.344 54.3535 130.832 53.7559C131.324 53.1582 131.979 52.8594 132.795 52.8594C133.604 52.8594 134.191 53.1836 134.559 53.832H134.582V50.1172H135.941V59ZM134.6 56.2578V55.4727C134.6 55.0469 134.461 54.6855 134.184 54.3887C133.906 54.0918 133.553 53.9434 133.123 53.9434C132.615 53.9434 132.215 54.1328 131.922 54.5117C131.633 54.8906 131.488 55.416 131.488 56.0879C131.488 56.6973 131.627 57.1797 131.904 57.5352C132.186 57.8867 132.562 58.0625 133.035 58.0625C133.5 58.0625 133.877 57.8926 134.166 57.5527C134.455 57.209 134.6 56.7773 134.6 56.2578ZM142.322 59H141.004V58.0625H140.98C140.566 58.7812 139.959 59.1406 139.158 59.1406C138.568 59.1406 138.105 58.9805 137.77 58.6602C137.438 58.3398 137.271 57.916 137.271 57.3887C137.271 56.2559 137.924 55.5957 139.229 55.4082L141.01 55.1562C141.01 54.3008 140.604 53.873 139.791 53.873C139.076 53.873 138.432 54.1191 137.857 54.6113V53.4219C138.49 53.0469 139.221 52.8594 140.049 52.8594C141.564 52.8594 142.322 53.6055 142.322 55.0977V59ZM141.01 56.0527L139.75 56.2285C139.359 56.2793 139.064 56.375 138.865 56.5156C138.67 56.6523 138.572 56.8945 138.572 57.2422C138.572 57.4961 138.662 57.7051 138.842 57.8691C139.025 58.0293 139.27 58.1094 139.574 58.1094C139.988 58.1094 140.33 57.9648 140.6 57.6758C140.873 57.3828 141.01 57.0156 141.01 56.5742V56.0527ZM151.586 58.7246C151.105 59.002 150.537 59.1406 149.881 59.1406C148.99 59.1406 148.271 58.8633 147.725 58.3086C147.178 57.75 146.904 57.0273 146.904 56.1406C146.904 55.1523 147.197 54.3594 147.783 53.7617C148.373 53.1602 149.16 52.8594 150.145 52.8594C150.691 52.8594 151.174 52.9551 151.592 53.1465V54.4121C151.174 54.0996 150.729 53.9434 150.256 53.9434C149.682 53.9434 149.211 54.1387 148.844 54.5293C148.477 54.916 148.293 55.4238 148.293 56.0527C148.293 56.6738 148.465 57.1641 148.809 57.5234C149.156 57.8828 149.621 58.0625 150.203 58.0625C150.691 58.0625 151.152 57.8887 151.586 57.541V58.7246ZM155.6 59.1406C154.674 59.1406 153.934 58.8613 153.379 58.3027C152.828 57.7402 152.553 56.9961 152.553 56.0703C152.553 55.0625 152.84 54.2754 153.414 53.709C153.992 53.1426 154.77 52.8594 155.746 52.8594C156.684 52.8594 157.414 53.1348 157.938 53.6855C158.461 54.2363 158.723 55 158.723 55.9766C158.723 56.9336 158.439 57.7012 157.873 58.2793C157.311 58.8535 156.553 59.1406 155.6 59.1406ZM155.664 53.9434C155.133 53.9434 154.713 54.1289 154.404 54.5C154.096 54.8711 153.941 55.3828 153.941 56.0352C153.941 56.6641 154.098 57.1602 154.41 57.5234C154.723 57.8828 155.141 58.0625 155.664 58.0625C156.199 58.0625 156.609 57.8848 156.895 57.5293C157.184 57.1738 157.328 56.668 157.328 56.0117C157.328 55.3516 157.184 54.8418 156.895 54.4824C156.609 54.123 156.199 53.9434 155.664 53.9434ZM169.082 59H167.723V55.7305C167.723 55.1016 167.633 54.6465 167.453 54.3652C167.277 54.084 166.979 53.9434 166.557 53.9434C166.201 53.9434 165.898 54.1211 165.648 54.4766C165.402 54.832 165.279 55.2578 165.279 55.7539V59H163.914V55.6191C163.914 54.502 163.52 53.9434 162.73 53.9434C162.363 53.9434 162.061 54.1113 161.822 54.4473C161.588 54.7832 161.471 55.2188 161.471 55.7539V59H160.111V53H161.471V53.9492H161.494C161.928 53.2227 162.559 52.8594 163.387 52.8594C163.801 52.8594 164.162 52.9746 164.471 53.2051C164.783 53.4316 164.996 53.7305 165.109 54.1016C165.555 53.2734 166.219 52.8594 167.102 52.8594C168.422 52.8594 169.082 53.6738 169.082 55.3027V59ZM181.322 59H179.799L175.785 52.8242C175.684 52.668 175.6 52.5059 175.533 52.3379H175.498C175.529 52.5176 175.545 52.9023 175.545 53.4922V59H174.197V50.5977H175.82L179.699 56.627C179.863 56.877 179.969 57.0488 180.016 57.1426H180.039C180 56.9199 179.98 56.543 179.98 56.0117V50.5977H181.322V59ZM185.916 59.1406C184.99 59.1406 184.25 58.8613 183.695 58.3027C183.145 57.7402 182.869 56.9961 182.869 56.0703C182.869 55.0625 183.156 54.2754 183.73 53.709C184.309 53.1426 185.086 52.8594 186.062 52.8594C187 52.8594 187.73 53.1348 188.254 53.6855C188.777 54.2363 189.039 55 189.039 55.9766C189.039 56.9336 188.756 57.7012 188.189 58.2793C187.627 58.8535 186.869 59.1406 185.916 59.1406ZM185.98 53.9434C185.449 53.9434 185.029 54.1289 184.721 54.5C184.412 54.8711 184.258 55.3828 184.258 56.0352C184.258 56.6641 184.414 57.1602 184.727 57.5234C185.039 57.8828 185.457 58.0625 185.98 58.0625C186.516 58.0625 186.926 57.8848 187.211 57.5293C187.5 57.1738 187.645 56.668 187.645 56.0117C187.645 55.3516 187.5 54.8418 187.211 54.4824C186.926 54.123 186.516 53.9434 185.98 53.9434ZM195.883 59H194.523V57.9805H194.5C194.062 58.7539 193.389 59.1406 192.479 59.1406C191.74 59.1406 191.148 58.873 190.703 58.3379C190.262 57.7988 190.041 57.0664 190.041 56.1406C190.041 55.1484 190.285 54.3535 190.773 53.7559C191.266 53.1582 191.92 52.8594 192.736 52.8594C193.545 52.8594 194.133 53.1836 194.5 53.832H194.523V50.1172H195.883V59ZM194.541 56.2578V55.4727C194.541 55.0469 194.402 54.6855 194.125 54.3887C193.848 54.0918 193.494 53.9434 193.064 53.9434C192.557 53.9434 192.156 54.1328 191.863 54.5117C191.574 54.8906 191.43 55.416 191.43 56.0879C191.43 56.6973 191.568 57.1797 191.846 57.5352C192.127 57.8867 192.504 58.0625 192.977 58.0625C193.441 58.0625 193.818 57.8926 194.107 57.5527C194.396 57.209 194.541 56.7773 194.541 56.2578ZM202.738 56.3691H198.648C198.664 56.9238 198.834 57.3516 199.158 57.6523C199.486 57.9531 199.936 58.1035 200.506 58.1035C201.146 58.1035 201.734 57.9121 202.27 57.5293V58.625C201.723 58.9688 201 59.1406 200.102 59.1406C199.219 59.1406 198.525 58.8691 198.021 58.3262C197.521 57.7793 197.271 57.0117 197.271 56.0234C197.271 55.0898 197.547 54.3301 198.098 53.7441C198.652 53.1543 199.34 52.8594 200.16 52.8594C200.98 52.8594 201.615 53.123 202.064 53.6504C202.514 54.1777 202.738 54.9102 202.738 55.8477V56.3691ZM201.426 55.4082C201.422 54.9199 201.307 54.541 201.08 54.2715C200.854 53.998 200.541 53.8613 200.143 53.8613C199.752 53.8613 199.42 54.0039 199.146 54.2891C198.877 54.5742 198.711 54.9473 198.648 55.4082H201.426ZM204.596 59.1289C204.361 59.1289 204.162 59.0527 203.998 58.9004C203.834 58.7441 203.752 58.5586 203.752 58.3438C203.752 58.125 203.834 57.9375 203.998 57.7812C204.162 57.625 204.361 57.5469 204.596 57.5469C204.834 57.5469 205.035 57.625 205.199 57.7812C205.367 57.9375 205.451 58.125 205.451 58.3438C205.451 58.5586 205.367 58.7441 205.199 58.9004C205.035 59.0527 204.834 59.1289 204.596 59.1289ZM208.287 58.748C208.287 59.7324 208.08 60.4902 207.666 61.0215C207.252 61.5566 206.66 61.8242 205.891 61.8242C205.605 61.8242 205.328 61.7617 205.059 61.6367V60.4707C205.312 60.6465 205.553 60.7344 205.779 60.7344C206.545 60.7344 206.928 60.0586 206.928 58.707V53H208.287V58.748ZM207.619 51.7402C207.396 51.7402 207.205 51.668 207.045 51.5234C206.889 51.3789 206.811 51.1953 206.811 50.9727C206.811 50.75 206.889 50.5645 207.045 50.416C207.205 50.2676 207.396 50.1934 207.619 50.1934C207.846 50.1934 208.039 50.2676 208.199 50.416C208.359 50.5645 208.439 50.75 208.439 50.9727C208.439 51.1836 208.359 51.3652 208.199 51.5176C208.039 51.666 207.846 51.7402 207.619 51.7402ZM209.693 58.8125V57.5527C210.201 57.9395 210.762 58.1328 211.375 58.1328C212.195 58.1328 212.605 57.8906 212.605 57.4062C212.605 57.2695 212.57 57.1543 212.5 57.0605C212.43 56.9629 212.334 56.877 212.213 56.8027C212.096 56.7285 211.955 56.6621 211.791 56.6035C211.631 56.5449 211.451 56.4785 211.252 56.4043C211.006 56.3066 210.783 56.2031 210.584 56.0938C210.389 55.9844 210.225 55.8613 210.092 55.7246C209.963 55.584 209.865 55.4258 209.799 55.25C209.732 55.0742 209.699 54.8691 209.699 54.6348C209.699 54.3457 209.768 54.0918 209.904 53.873C210.041 53.6504 210.225 53.4648 210.455 53.3164C210.686 53.1641 210.947 53.0508 211.24 52.9766C211.533 52.8984 211.836 52.8594 212.148 52.8594C212.703 52.8594 213.199 52.9434 213.637 53.1113V54.3008C213.215 54.0117 212.73 53.8672 212.184 53.8672C212.012 53.8672 211.855 53.8848 211.715 53.9199C211.578 53.9551 211.461 54.0039 211.363 54.0664C211.266 54.1289 211.189 54.2051 211.135 54.2949C211.08 54.3809 211.053 54.4766 211.053 54.582C211.053 54.7109 211.08 54.8203 211.135 54.9102C211.189 55 211.27 55.0801 211.375 55.1504C211.484 55.2168 211.613 55.2793 211.762 55.3379C211.914 55.3926 212.088 55.4531 212.283 55.5195C212.541 55.625 212.771 55.7324 212.975 55.8418C213.182 55.9512 213.357 56.0762 213.502 56.2168C213.646 56.3535 213.758 56.5137 213.836 56.6973C213.914 56.877 213.953 57.0918 213.953 57.3418C213.953 57.6465 213.883 57.9121 213.742 58.1387C213.602 58.3652 213.414 58.5527 213.18 58.7012C212.945 58.8496 212.674 58.959 212.365 59.0293C212.061 59.1035 211.738 59.1406 211.398 59.1406C210.742 59.1406 210.174 59.0312 209.693 58.8125ZM216.52 57.5996L215.611 60.5234H214.592L215.236 57.5996H216.52ZM226.316 59H221.6V50.5977H226.129V51.7812H222.994V54.1602H225.883V55.3379H222.994V57.8223H226.316V59ZM232.674 53L230.676 56.0352L232.65 59H231.074L230.02 57.1426C229.953 57.0293 229.875 56.8848 229.785 56.709H229.762C229.746 56.7441 229.664 56.8887 229.516 57.1426L228.443 59H226.873L228.912 56.0586L226.979 53H228.561L229.598 54.9512C229.676 55.0957 229.752 55.2441 229.826 55.3965H229.844L231.186 53H232.674ZM235.053 58.1152H235.029V61.7598H233.67V53H235.029V54.0547H235.053C235.518 53.2578 236.197 52.8594 237.092 52.8594C237.854 52.8594 238.447 53.127 238.873 53.6621C239.299 54.1973 239.512 54.916 239.512 55.8184C239.512 56.8184 239.271 57.6191 238.791 58.2207C238.311 58.8223 237.654 59.123 236.822 59.123C236.057 59.123 235.467 58.7871 235.053 58.1152ZM235.018 55.748V56.4922C235.018 56.9297 235.156 57.3008 235.434 57.6055C235.715 57.9102 236.07 58.0625 236.5 58.0625C237.004 58.0625 237.398 57.8672 237.684 57.4766C237.973 57.082 238.117 56.5332 238.117 55.8301C238.117 55.2402 237.982 54.7793 237.713 54.4473C237.447 54.1113 237.086 53.9434 236.629 53.9434C236.145 53.9434 235.754 54.1152 235.457 54.459C235.164 54.8027 235.018 55.2324 235.018 55.748ZM244.381 54.2949C244.217 54.166 243.98 54.1016 243.672 54.1016C243.27 54.1016 242.934 54.2832 242.664 54.6465C242.395 55.0098 242.26 55.5039 242.26 56.1289V59H240.9V53H242.26V54.2363H242.283C242.416 53.8145 242.619 53.4863 242.893 53.252C243.17 53.0137 243.479 52.8945 243.818 52.8945C244.064 52.8945 244.252 52.9316 244.381 53.0059V54.2949ZM250.316 56.3691H246.227C246.242 56.9238 246.412 57.3516 246.736 57.6523C247.064 57.9531 247.514 58.1035 248.084 58.1035C248.725 58.1035 249.312 57.9121 249.848 57.5293V58.625C249.301 58.9688 248.578 59.1406 247.68 59.1406C246.797 59.1406 246.104 58.8691 245.6 58.3262C245.1 57.7793 244.85 57.0117 244.85 56.0234C244.85 55.0898 245.125 54.3301 245.676 53.7441C246.23 53.1543 246.918 52.8594 247.738 52.8594C248.559 52.8594 249.193 53.123 249.643 53.6504C250.092 54.1777 250.316 54.9102 250.316 55.8477V56.3691ZM249.004 55.4082C249 54.9199 248.885 54.541 248.658 54.2715C248.432 53.998 248.119 53.8613 247.721 53.8613C247.33 53.8613 246.998 54.0039 246.725 54.2891C246.455 54.5742 246.289 54.9473 246.227 55.4082H249.004ZM251.236 58.8125V57.5527C251.744 57.9395 252.305 58.1328 252.918 58.1328C253.738 58.1328 254.148 57.8906 254.148 57.4062C254.148 57.2695 254.113 57.1543 254.043 57.0605C253.973 56.9629 253.877 56.877 253.756 56.8027C253.639 56.7285 253.498 56.6621 253.334 56.6035C253.174 56.5449 252.994 56.4785 252.795 56.4043C252.549 56.3066 252.326 56.2031 252.127 56.0938C251.932 55.9844 251.768 55.8613 251.635 55.7246C251.506 55.584 251.408 55.4258 251.342 55.25C251.275 55.0742 251.242 54.8691 251.242 54.6348C251.242 54.3457 251.311 54.0918 251.447 53.873C251.584 53.6504 251.768 53.4648 251.998 53.3164C252.229 53.1641 252.49 53.0508 252.783 52.9766C253.076 52.8984 253.379 52.8594 253.691 52.8594C254.246 52.8594 254.742 52.9434 255.18 53.1113V54.3008C254.758 54.0117 254.273 53.8672 253.727 53.8672C253.555 53.8672 253.398 53.8848 253.258 53.9199C253.121 53.9551 253.004 54.0039 252.906 54.0664C252.809 54.1289 252.732 54.2051 252.678 54.2949C252.623 54.3809 252.596 54.4766 252.596 54.582C252.596 54.7109 252.623 54.8203 252.678 54.9102C252.732 55 252.812 55.0801 252.918 55.1504C253.027 55.2168 253.156 55.2793 253.305 55.3379C253.457 55.3926 253.631 55.4531 253.826 55.5195C254.084 55.625 254.314 55.7324 254.518 55.8418C254.725 55.9512 254.9 56.0762 255.045 56.2168C255.189 56.3535 255.301 56.5137 255.379 56.6973C255.457 56.877 255.496 57.0918 255.496 57.3418C255.496 57.6465 255.426 57.9121 255.285 58.1387C255.145 58.3652 254.957 58.5527 254.723 58.7012C254.488 58.8496 254.217 58.959 253.908 59.0293C253.604 59.1035 253.281 59.1406 252.941 59.1406C252.285 59.1406 251.717 59.0312 251.236 58.8125ZM256.416 58.8125V57.5527C256.924 57.9395 257.484 58.1328 258.098 58.1328C258.918 58.1328 259.328 57.8906 259.328 57.4062C259.328 57.2695 259.293 57.1543 259.223 57.0605C259.152 56.9629 259.057 56.877 258.936 56.8027C258.818 56.7285 258.678 56.6621 258.514 56.6035C258.354 56.5449 258.174 56.4785 257.975 56.4043C257.729 56.3066 257.506 56.2031 257.307 56.0938C257.111 55.9844 256.947 55.8613 256.814 55.7246C256.686 55.584 256.588 55.4258 256.521 55.25C256.455 55.0742 256.422 54.8691 256.422 54.6348C256.422 54.3457 256.49 54.0918 256.627 53.873C256.764 53.6504 256.947 53.4648 257.178 53.3164C257.408 53.1641 257.67 53.0508 257.963 52.9766C258.256 52.8984 258.559 52.8594 258.871 52.8594C259.426 52.8594 259.922 52.9434 260.359 53.1113V54.3008C259.938 54.0117 259.453 53.8672 258.906 53.8672C258.734 53.8672 258.578 53.8848 258.438 53.9199C258.301 53.9551 258.184 54.0039 258.086 54.0664C257.988 54.1289 257.912 54.2051 257.857 54.2949C257.803 54.3809 257.775 54.4766 257.775 54.582C257.775 54.7109 257.803 54.8203 257.857 54.9102C257.912 55 257.992 55.0801 258.098 55.1504C258.207 55.2168 258.336 55.2793 258.484 55.3379C258.637 55.3926 258.811 55.4531 259.006 55.5195C259.264 55.625 259.494 55.7324 259.697 55.8418C259.904 55.9512 260.08 56.0762 260.225 56.2168C260.369 56.3535 260.48 56.5137 260.559 56.6973C260.637 56.877 260.676 57.0918 260.676 57.3418C260.676 57.6465 260.605 57.9121 260.465 58.1387C260.324 58.3652 260.137 58.5527 259.902 58.7012C259.668 58.8496 259.396 58.959 259.088 59.0293C258.783 59.1035 258.461 59.1406 258.121 59.1406C257.465 59.1406 256.896 59.0312 256.416 58.8125ZM262.533 59.1289C262.299 59.1289 262.1 59.0527 261.936 58.9004C261.771 58.7441 261.689 58.5586 261.689 58.3438C261.689 58.125 261.771 57.9375 261.936 57.7812C262.1 57.625 262.299 57.5469 262.533 57.5469C262.771 57.5469 262.973 57.625 263.137 57.7812C263.305 57.9375 263.389 58.125 263.389 58.3438C263.389 58.5586 263.305 58.7441 263.137 58.9004C262.973 59.0527 262.771 59.1289 262.533 59.1289ZM266.225 58.748C266.225 59.7324 266.018 60.4902 265.604 61.0215C265.189 61.5566 264.598 61.8242 263.828 61.8242C263.543 61.8242 263.266 61.7617 262.996 61.6367V60.4707C263.25 60.6465 263.49 60.7344 263.717 60.7344C264.482 60.7344 264.865 60.0586 264.865 58.707V53H266.225V58.748ZM265.557 51.7402C265.334 51.7402 265.143 51.668 264.982 51.5234C264.826 51.3789 264.748 51.1953 264.748 50.9727C264.748 50.75 264.826 50.5645 264.982 50.416C265.143 50.2676 265.334 50.1934 265.557 50.1934C265.783 50.1934 265.977 50.2676 266.137 50.416C266.297 50.5645 266.377 50.75 266.377 50.9727C266.377 51.1836 266.297 51.3652 266.137 51.5176C265.977 51.666 265.783 51.7402 265.557 51.7402ZM267.631 58.8125V57.5527C268.139 57.9395 268.699 58.1328 269.312 58.1328C270.133 58.1328 270.543 57.8906 270.543 57.4062C270.543 57.2695 270.508 57.1543 270.438 57.0605C270.367 56.9629 270.271 56.877 270.15 56.8027C270.033 56.7285 269.893 56.6621 269.729 56.6035C269.568 56.5449 269.389 56.4785 269.189 56.4043C268.943 56.3066 268.721 56.2031 268.521 56.0938C268.326 55.9844 268.162 55.8613 268.029 55.7246C267.9 55.584 267.803 55.4258 267.736 55.25C267.67 55.0742 267.637 54.8691 267.637 54.6348C267.637 54.3457 267.705 54.0918 267.842 53.873C267.979 53.6504 268.162 53.4648 268.393 53.3164C268.623 53.1641 268.885 53.0508 269.178 52.9766C269.471 52.8984 269.773 52.8594 270.086 52.8594C270.641 52.8594 271.137 52.9434 271.574 53.1113V54.3008C271.152 54.0117 270.668 53.8672 270.121 53.8672C269.949 53.8672 269.793 53.8848 269.652 53.9199C269.516 53.9551 269.398 54.0039 269.301 54.0664C269.203 54.1289 269.127 54.2051 269.072 54.2949C269.018 54.3809 268.99 54.4766 268.99 54.582C268.99 54.7109 269.018 54.8203 269.072 54.9102C269.127 55 269.207 55.0801 269.312 55.1504C269.422 55.2168 269.551 55.2793 269.699 55.3379C269.852 55.3926 270.025 55.4531 270.221 55.5195C270.479 55.625 270.709 55.7324 270.912 55.8418C271.119 55.9512 271.295 56.0762 271.439 56.2168C271.584 56.3535 271.695 56.5137 271.773 56.6973C271.852 56.877 271.891 57.0918 271.891 57.3418C271.891 57.6465 271.82 57.9121 271.68 58.1387C271.539 58.3652 271.352 58.5527 271.117 58.7012C270.883 58.8496 270.611 58.959 270.303 59.0293C269.998 59.1035 269.676 59.1406 269.336 59.1406C268.68 59.1406 268.111 59.0312 267.631 58.8125ZM281.57 56.3691H277.48C277.496 56.9238 277.666 57.3516 277.99 57.6523C278.318 57.9531 278.768 58.1035 279.338 58.1035C279.979 58.1035 280.566 57.9121 281.102 57.5293V58.625C280.555 58.9688 279.832 59.1406 278.934 59.1406C278.051 59.1406 277.357 58.8691 276.854 58.3262C276.354 57.7793 276.104 57.0117 276.104 56.0234C276.104 55.0898 276.379 54.3301 276.93 53.7441C277.484 53.1543 278.172 52.8594 278.992 52.8594C279.812 52.8594 280.447 53.123 280.896 53.6504C281.346 54.1777 281.57 54.9102 281.57 55.8477V56.3691ZM280.258 55.4082C280.254 54.9199 280.139 54.541 279.912 54.2715C279.686 53.998 279.373 53.8613 278.975 53.8613C278.584 53.8613 278.252 54.0039 277.979 54.2891C277.709 54.5742 277.543 54.9473 277.48 55.4082H280.258ZM26.0605 75H24.6777V69.5625C24.6777 69.1172 24.7051 68.5723 24.7598 67.9277H24.7363C24.6504 68.2949 24.5742 68.5586 24.5078 68.7188L22 75H21.0391L18.5254 68.7656C18.4551 68.582 18.3809 68.3027 18.3027 67.9277H18.2793C18.3105 68.2637 18.3262 68.8125 18.3262 69.5742V75H17.0371V66.5977H19L21.209 72.1934C21.377 72.623 21.4863 72.9434 21.5371 73.1543H21.5664C21.7109 72.7129 21.8281 72.3848 21.918 72.1699L24.168 66.5977H26.0605V75ZM30.6426 75.1406C29.7168 75.1406 28.9766 74.8613 28.4219 74.3027C27.8711 73.7402 27.5957 72.9961 27.5957 72.0703C27.5957 71.0625 27.8828 70.2754 28.457 69.709C29.0352 69.1426 29.8125 68.8594 30.7891 68.8594C31.7266 68.8594 32.457 69.1348 32.9805 69.6855C33.5039 70.2363 33.7656 71 33.7656 71.9766C33.7656 72.9336 33.4824 73.7012 32.916 74.2793C32.3535 74.8535 31.5957 75.1406 30.6426 75.1406ZM30.707 69.9434C30.1758 69.9434 29.7559 70.1289 29.4473 70.5C29.1387 70.8711 28.9844 71.3828 28.9844 72.0352C28.9844 72.6641 29.1406 73.1602 29.4531 73.5234C29.7656 73.8828 30.1836 74.0625 30.707 74.0625C31.2422 74.0625 31.6523 73.8848 31.9375 73.5293C32.2266 73.1738 32.3711 72.668 32.3711 72.0117C32.3711 71.3516 32.2266 70.8418 31.9375 70.4824C31.6523 70.123 31.2422 69.9434 30.707 69.9434ZM40.498 75H39.1387V71.6191C39.1387 70.498 38.7422 69.9375 37.9492 69.9375C37.5352 69.9375 37.1934 70.0938 36.9238 70.4062C36.6543 70.7148 36.5195 71.1055 36.5195 71.5781V75H35.1543V69H36.5195V69.9961H36.543C36.9922 69.2383 37.6406 68.8594 38.4883 68.8594C39.1406 68.8594 39.6387 69.0723 39.9824 69.498C40.3262 69.9199 40.498 70.5312 40.498 71.332V75ZM47.623 74.5195C47.623 76.7227 46.5156 77.8242 44.3008 77.8242C43.5195 77.8242 42.8379 77.6934 42.2559 77.4316V76.1895C42.9121 76.5645 43.5352 76.752 44.125 76.752C45.5508 76.752 46.2637 76.0508 46.2637 74.6484V73.9922H46.2402C45.791 74.7578 45.1152 75.1406 44.2129 75.1406C43.4824 75.1406 42.8926 74.875 42.4434 74.3438C41.998 73.8086 41.7754 73.0918 41.7754 72.1934C41.7754 71.1738 42.0156 70.3633 42.4961 69.7617C42.9766 69.1602 43.6367 68.8594 44.4766 68.8594C45.2695 68.8594 45.8574 69.1836 46.2402 69.832H46.2637V69H47.623V74.5195ZM46.2754 72.252V71.4727C46.2754 71.0508 46.1348 70.6914 45.8535 70.3945C45.5762 70.0938 45.2285 69.9434 44.8105 69.9434C44.2949 69.9434 43.8906 70.1348 43.5977 70.5176C43.3086 70.8965 43.1641 71.4277 43.1641 72.1113C43.1641 72.7012 43.3027 73.1738 43.5801 73.5293C43.8613 73.8809 44.2324 74.0566 44.6934 74.0566C45.1621 74.0566 45.543 73.8887 45.8359 73.5527C46.1289 73.2129 46.2754 72.7793 46.2754 72.252ZM52.0527 75.1406C51.127 75.1406 50.3867 74.8613 49.832 74.3027C49.2812 73.7402 49.0059 72.9961 49.0059 72.0703C49.0059 71.0625 49.293 70.2754 49.8672 69.709C50.4453 69.1426 51.2227 68.8594 52.1992 68.8594C53.1367 68.8594 53.8672 69.1348 54.3906 69.6855C54.9141 70.2363 55.1758 71 55.1758 71.9766C55.1758 72.9336 54.8926 73.7012 54.3262 74.2793C53.7637 74.8535 53.0059 75.1406 52.0527 75.1406ZM52.1172 69.9434C51.5859 69.9434 51.166 70.1289 50.8574 70.5C50.5488 70.8711 50.3945 71.3828 50.3945 72.0352C50.3945 72.6641 50.5508 73.1602 50.8633 73.5234C51.1758 73.8828 51.5938 74.0625 52.1172 74.0625C52.6523 74.0625 53.0625 73.8848 53.3477 73.5293C53.6367 73.1738 53.7812 72.668 53.7812 72.0117C53.7812 71.3516 53.6367 70.8418 53.3477 70.4824C53.0625 70.123 52.6523 69.9434 52.1172 69.9434ZM56.7168 75V66.5977H59.1426C62.2402 66.5977 63.7891 67.9629 63.7891 70.6934C63.7891 71.9902 63.3594 73.0332 62.5 73.8223C61.6406 74.6074 60.4883 75 59.043 75H56.7168ZM58.1055 67.7812V73.8223H59.2188C60.1992 73.8223 60.9609 73.5527 61.5039 73.0137C62.0508 72.4746 62.3242 71.7129 62.3242 70.7285C62.3242 68.7637 61.3066 67.7812 59.2715 67.7812H58.1055ZM65.3301 75V66.5977H67.9961C68.8086 66.5977 69.4512 66.7754 69.9238 67.1309C70.4004 67.4863 70.6387 67.9492 70.6387 68.5195C70.6387 68.9961 70.5039 69.4102 70.2344 69.7617C69.9648 70.1133 69.5918 70.3633 69.1152 70.5117V70.5352C69.6934 70.6016 70.1543 70.8164 70.498 71.1797C70.8457 71.5391 71.0195 72.0078 71.0195 72.5859C71.0195 73.3047 70.7363 73.8867 70.1699 74.332C69.6035 74.7773 68.8887 75 68.0254 75H65.3301ZM66.7188 67.7168V70.1074H67.6211C68.1055 70.1074 68.4844 69.9941 68.7578 69.7676C69.0352 69.5371 69.1738 69.2129 69.1738 68.7949C69.1738 68.0762 68.6934 67.7168 67.7324 67.7168H66.7188ZM66.7188 71.2266V73.8867H67.9082C68.4277 73.8867 68.8281 73.7676 69.1094 73.5293C69.3945 73.2871 69.5371 72.9551 69.5371 72.5332C69.5371 71.6621 68.9336 71.2266 67.7266 71.2266H66.7188ZM73.7031 73.5996L72.7949 76.5234H71.7754L72.4199 73.5996H73.7031ZM80.0137 74.1152H79.9902V77.7598H78.6309V69H79.9902V70.0547H80.0137C80.4785 69.2578 81.1582 68.8594 82.0527 68.8594C82.8145 68.8594 83.4082 69.127 83.834 69.6621C84.2598 70.1973 84.4727 70.916 84.4727 71.8184C84.4727 72.8184 84.2324 73.6191 83.752 74.2207C83.2715 74.8223 82.6152 75.123 81.7832 75.123C81.0176 75.123 80.4277 74.7871 80.0137 74.1152ZM79.9785 71.748V72.4922C79.9785 72.9297 80.1172 73.3008 80.3945 73.6055C80.6758 73.9102 81.0312 74.0625 81.4609 74.0625C81.9648 74.0625 82.3594 73.8672 82.6445 73.4766C82.9336 73.082 83.0781 72.5332 83.0781 71.8301C83.0781 71.2402 82.9434 70.7793 82.6738 70.4473C82.4082 70.1113 82.0469 69.9434 81.5898 69.9434C81.1055 69.9434 80.7148 70.1152 80.418 70.459C80.125 70.8027 79.9785 71.2324 79.9785 71.748ZM90.3262 75H89.0078V74.0625H88.9844C88.5703 74.7812 87.9629 75.1406 87.1621 75.1406C86.5723 75.1406 86.1094 74.9805 85.7734 74.6602C85.4414 74.3398 85.2754 73.916 85.2754 73.3887C85.2754 72.2559 85.9277 71.5957 87.2324 71.4082L89.0137 71.1562C89.0137 70.3008 88.6074 69.873 87.7949 69.873C87.0801 69.873 86.4355 70.1191 85.8613 70.6113V69.4219C86.4941 69.0469 87.2246 68.8594 88.0527 68.8594C89.5684 68.8594 90.3262 69.6055 90.3262 71.0977V75ZM89.0137 72.0527L87.7539 72.2285C87.3633 72.2793 87.0684 72.375 86.8691 72.5156C86.6738 72.6523 86.5762 72.8945 86.5762 73.2422C86.5762 73.4961 86.666 73.7051 86.8457 73.8691C87.0293 74.0293 87.2734 74.1094 87.5781 74.1094C87.9922 74.1094 88.334 73.9648 88.6035 73.6758C88.877 73.3828 89.0137 73.0156 89.0137 72.5742V72.0527ZM95.4707 70.2949C95.3066 70.166 95.0703 70.1016 94.7617 70.1016C94.3594 70.1016 94.0234 70.2832 93.7539 70.6465C93.4844 71.0098 93.3496 71.5039 93.3496 72.1289V75H91.9902V69H93.3496V70.2363H93.373C93.5059 69.8145 93.709 69.4863 93.9824 69.252C94.2598 69.0137 94.5684 68.8945 94.9082 68.8945C95.1543 68.8945 95.3418 68.9316 95.4707 69.0059V70.2949ZM101.037 75H99.7188V74.0625H99.6953C99.2812 74.7812 98.6738 75.1406 97.873 75.1406C97.2832 75.1406 96.8203 74.9805 96.4844 74.6602C96.1523 74.3398 95.9863 73.916 95.9863 73.3887C95.9863 72.2559 96.6387 71.5957 97.9434 71.4082L99.7246 71.1562C99.7246 70.3008 99.3184 69.873 98.5059 69.873C97.791 69.873 97.1465 70.1191 96.5723 70.6113V69.4219C97.2051 69.0469 97.9355 68.8594 98.7637 68.8594C100.279 68.8594 101.037 69.6055 101.037 71.0977V75ZM99.7246 72.0527L98.4648 72.2285C98.0742 72.2793 97.7793 72.375 97.5801 72.5156C97.3848 72.6523 97.2871 72.8945 97.2871 73.2422C97.2871 73.4961 97.377 73.7051 97.5566 73.8691C97.7402 74.0293 97.9844 74.1094 98.2891 74.1094C98.7031 74.1094 99.0449 73.9648 99.3145 73.6758C99.5879 73.3828 99.7246 73.0156 99.7246 72.5742V72.0527ZM108.666 75.1406C107.74 75.1406 107 74.8613 106.445 74.3027C105.895 73.7402 105.619 72.9961 105.619 72.0703C105.619 71.0625 105.906 70.2754 106.48 69.709C107.059 69.1426 107.836 68.8594 108.812 68.8594C109.75 68.8594 110.48 69.1348 111.004 69.6855C111.527 70.2363 111.789 71 111.789 71.9766C111.789 72.9336 111.506 73.7012 110.939 74.2793C110.377 74.8535 109.619 75.1406 108.666 75.1406ZM108.73 69.9434C108.199 69.9434 107.779 70.1289 107.471 70.5C107.162 70.8711 107.008 71.3828 107.008 72.0352C107.008 72.6641 107.164 73.1602 107.477 73.5234C107.789 73.8828 108.207 74.0625 108.73 74.0625C109.266 74.0625 109.676 73.8848 109.961 73.5293C110.25 73.1738 110.395 72.668 110.395 72.0117C110.395 71.3516 110.25 70.8418 109.961 70.4824C109.676 70.123 109.266 69.9434 108.73 69.9434ZM116.658 70.2949C116.494 70.166 116.258 70.1016 115.949 70.1016C115.547 70.1016 115.211 70.2832 114.941 70.6465C114.672 71.0098 114.537 71.5039 114.537 72.1289V75H113.178V69H114.537V70.2363H114.561C114.693 69.8145 114.896 69.4863 115.17 69.252C115.447 69.0137 115.756 68.8945 116.096 68.8945C116.342 68.8945 116.529 68.9316 116.658 69.0059V70.2949ZM122.975 74.5195C122.975 76.7227 121.867 77.8242 119.652 77.8242C118.871 77.8242 118.189 77.6934 117.607 77.4316V76.1895C118.264 76.5645 118.887 76.752 119.477 76.752C120.902 76.752 121.615 76.0508 121.615 74.6484V73.9922H121.592C121.143 74.7578 120.467 75.1406 119.564 75.1406C118.834 75.1406 118.244 74.875 117.795 74.3438C117.35 73.8086 117.127 73.0918 117.127 72.1934C117.127 71.1738 117.367 70.3633 117.848 69.7617C118.328 69.1602 118.988 68.8594 119.828 68.8594C120.621 68.8594 121.209 69.1836 121.592 69.832H121.615V69H122.975V74.5195ZM121.627 72.252V71.4727C121.627 71.0508 121.486 70.6914 121.205 70.3945C120.928 70.0938 120.58 69.9434 120.162 69.9434C119.646 69.9434 119.242 70.1348 118.949 70.5176C118.66 70.8965 118.516 71.4277 118.516 72.1113C118.516 72.7012 118.654 73.1738 118.932 73.5293C119.213 73.8809 119.584 74.0566 120.045 74.0566C120.514 74.0566 120.895 73.8887 121.188 73.5527C121.48 73.2129 121.627 72.7793 121.627 72.252ZM129.35 75H128.031V74.0625H128.008C127.594 74.7812 126.986 75.1406 126.186 75.1406C125.596 75.1406 125.133 74.9805 124.797 74.6602C124.465 74.3398 124.299 73.916 124.299 73.3887C124.299 72.2559 124.951 71.5957 126.256 71.4082L128.037 71.1562C128.037 70.3008 127.631 69.873 126.818 69.873C126.104 69.873 125.459 70.1191 124.885 70.6113V69.4219C125.518 69.0469 126.248 68.8594 127.076 68.8594C128.592 68.8594 129.35 69.6055 129.35 71.0977V75ZM128.037 72.0527L126.777 72.2285C126.387 72.2793 126.092 72.375 125.893 72.5156C125.697 72.6523 125.6 72.8945 125.6 73.2422C125.6 73.4961 125.689 73.7051 125.869 73.8691C126.053 74.0293 126.297 74.1094 126.602 74.1094C127.016 74.1094 127.357 73.9648 127.627 73.6758C127.9 73.3828 128.037 73.0156 128.037 72.5742V72.0527ZM136.357 75H134.998V71.6191C134.998 70.498 134.602 69.9375 133.809 69.9375C133.395 69.9375 133.053 70.0938 132.783 70.4062C132.514 70.7148 132.379 71.1055 132.379 71.5781V75H131.014V69H132.379V69.9961H132.402C132.852 69.2383 133.5 68.8594 134.348 68.8594C135 68.8594 135.498 69.0723 135.842 69.498C136.186 69.9199 136.357 70.5312 136.357 71.332V75ZM138.707 67.7402C138.484 67.7402 138.293 67.668 138.133 67.5234C137.977 67.3789 137.898 67.1953 137.898 66.9727C137.898 66.75 137.977 66.5645 138.133 66.416C138.293 66.2676 138.484 66.1934 138.707 66.1934C138.938 66.1934 139.133 66.2676 139.293 66.416C139.453 66.5645 139.533 66.75 139.533 66.9727C139.533 67.1836 139.453 67.3652 139.293 67.5176C139.133 67.666 138.938 67.7402 138.707 67.7402ZM139.381 75H138.021V69H139.381V75ZM145.592 69.5684L142.352 73.9395H145.58V75H140.447V74.4902L143.758 70.0605H140.764V69H145.592V69.5684ZM151.346 75H150.027V74.0625H150.004C149.59 74.7812 148.982 75.1406 148.182 75.1406C147.592 75.1406 147.129 74.9805 146.793 74.6602C146.461 74.3398 146.295 73.916 146.295 73.3887C146.295 72.2559 146.947 71.5957 148.252 71.4082L150.033 71.1562C150.033 70.3008 149.627 69.873 148.814 69.873C148.1 69.873 147.455 70.1191 146.881 70.6113V69.4219C147.514 69.0469 148.244 68.8594 149.072 68.8594C150.588 68.8594 151.346 69.6055 151.346 71.0977V75ZM150.033 72.0527L148.773 72.2285C148.383 72.2793 148.088 72.375 147.889 72.5156C147.693 72.6523 147.596 72.8945 147.596 73.2422C147.596 73.4961 147.686 73.7051 147.865 73.8691C148.049 74.0293 148.293 74.1094 148.598 74.1094C149.012 74.1094 149.354 73.9648 149.623 73.6758C149.896 73.3828 150.033 73.0156 150.033 72.5742V72.0527ZM157.305 74.7246C156.824 75.002 156.256 75.1406 155.6 75.1406C154.709 75.1406 153.99 74.8633 153.443 74.3086C152.896 73.75 152.623 73.0273 152.623 72.1406C152.623 71.1523 152.916 70.3594 153.502 69.7617C154.092 69.1602 154.879 68.8594 155.863 68.8594C156.41 68.8594 156.893 68.9551 157.311 69.1465V70.4121C156.893 70.0996 156.447 69.9434 155.975 69.9434C155.4 69.9434 154.93 70.1387 154.562 70.5293C154.195 70.916 154.012 71.4238 154.012 72.0527C154.012 72.6738 154.184 73.1641 154.527 73.5234C154.875 73.8828 155.34 74.0625 155.922 74.0625C156.41 74.0625 156.871 73.8887 157.305 73.541V74.7246ZM156.818 76.4531C156.818 77.2109 156.256 77.5898 155.131 77.5898C154.947 77.5898 154.789 77.584 154.656 77.5723V76.9219C154.828 76.9453 154.967 76.957 155.072 76.957C155.592 76.957 155.852 76.7969 155.852 76.4766C155.852 76.1875 155.615 76.043 155.143 76.043C155.104 76.043 155.027 76.0508 154.914 76.0664V75H155.711V75.5508C156.051 75.5508 156.32 75.6289 156.52 75.7852C156.719 75.9453 156.818 76.168 156.818 76.4531ZM163.264 75H161.945V74.0625H161.922C161.508 74.7812 160.9 75.1406 160.1 75.1406C159.51 75.1406 159.047 74.9805 158.711 74.6602C158.379 74.3398 158.213 73.916 158.213 73.3887C158.213 72.2559 158.865 71.5957 160.17 71.4082L161.951 71.1562C161.951 70.3008 161.545 69.873 160.732 69.873C160.018 69.873 159.373 70.1191 158.799 70.6113V69.4219C159.432 69.0469 160.162 68.8594 160.99 68.8594C162.506 68.8594 163.264 69.6055 163.264 71.0977V75ZM161.951 72.0527L160.691 72.2285C160.301 72.2793 160.006 72.375 159.807 72.5156C159.611 72.6523 159.514 72.8945 159.514 73.2422C159.514 73.4961 159.604 73.7051 159.783 73.8691C159.967 74.0293 160.211 74.1094 160.516 74.1094C160.93 74.1094 161.271 73.9648 161.541 73.6758C161.814 73.3828 161.951 73.0156 161.951 72.5742V72.0527ZM162.883 66.3574C162.883 66.8105 162.781 67.1816 162.578 67.4707C162.379 67.7559 162.107 67.8984 161.764 67.8984C161.482 67.8984 161.16 67.8047 160.797 67.6172C160.492 67.4414 160.256 67.3535 160.088 67.3535C159.76 67.3535 159.596 67.5703 159.596 68.0039H158.922C158.922 67.5391 159.021 67.168 159.221 66.8906C159.42 66.6094 159.699 66.4688 160.059 66.4688C160.324 66.4688 160.631 66.5684 160.979 66.7676C161.26 66.9395 161.504 67.0254 161.711 67.0254C162.027 67.0254 162.186 66.8027 162.186 66.3574H162.883ZM167.588 75.1406C166.662 75.1406 165.922 74.8613 165.367 74.3027C164.816 73.7402 164.541 72.9961 164.541 72.0703C164.541 71.0625 164.828 70.2754 165.402 69.709C165.98 69.1426 166.758 68.8594 167.734 68.8594C168.672 68.8594 169.402 69.1348 169.926 69.6855C170.449 70.2363 170.711 71 170.711 71.9766C170.711 72.9336 170.428 73.7012 169.861 74.2793C169.299 74.8535 168.541 75.1406 167.588 75.1406ZM167.652 69.9434C167.121 69.9434 166.701 70.1289 166.393 70.5C166.084 70.8711 165.93 71.3828 165.93 72.0352C165.93 72.6641 166.086 73.1602 166.398 73.5234C166.711 73.8828 167.129 74.0625 167.652 74.0625C168.188 74.0625 168.598 73.8848 168.883 73.5293C169.172 73.1738 169.316 72.668 169.316 72.0117C169.316 71.3516 169.172 70.8418 168.883 70.4824C168.598 70.123 168.188 69.9434 167.652 69.9434ZM180.859 75H179.5V73.9805H179.477C179.039 74.7539 178.365 75.1406 177.455 75.1406C176.717 75.1406 176.125 74.873 175.68 74.3379C175.238 73.7988 175.018 73.0664 175.018 72.1406C175.018 71.1484 175.262 70.3535 175.75 69.7559C176.242 69.1582 176.896 68.8594 177.713 68.8594C178.521 68.8594 179.109 69.1836 179.477 69.832H179.5V66.1172H180.859V75ZM179.518 72.2578V71.4727C179.518 71.0469 179.379 70.6855 179.102 70.3887C178.824 70.0918 178.471 69.9434 178.041 69.9434C177.533 69.9434 177.133 70.1328 176.84 70.5117C176.551 70.8906 176.406 71.416 176.406 72.0879C176.406 72.6973 176.545 73.1797 176.822 73.5352C177.104 73.8867 177.48 74.0625 177.953 74.0625C178.418 74.0625 178.795 73.8926 179.084 73.5527C179.373 73.209 179.518 72.7773 179.518 72.2578ZM187.715 72.3691H183.625C183.641 72.9238 183.811 73.3516 184.135 73.6523C184.463 73.9531 184.912 74.1035 185.482 74.1035C186.123 74.1035 186.711 73.9121 187.246 73.5293V74.625C186.699 74.9688 185.977 75.1406 185.078 75.1406C184.195 75.1406 183.502 74.8691 182.998 74.3262C182.498 73.7793 182.248 73.0117 182.248 72.0234C182.248 71.0898 182.523 70.3301 183.074 69.7441C183.629 69.1543 184.316 68.8594 185.137 68.8594C185.957 68.8594 186.592 69.123 187.041 69.6504C187.49 70.1777 187.715 70.9102 187.715 71.8477V72.3691ZM186.402 71.4082C186.398 70.9199 186.283 70.541 186.057 70.2715C185.83 69.998 185.518 69.8613 185.119 69.8613C184.729 69.8613 184.396 70.0039 184.123 70.2891C183.854 70.5742 183.688 70.9473 183.625 71.4082H186.402ZM195.479 74.9355C195.213 75.0684 194.863 75.1348 194.43 75.1348C193.266 75.1348 192.684 74.5762 192.684 73.459V70.0664H191.682V69H192.684V67.6113L194.043 67.2246V69H195.479V70.0664H194.043V73.0664C194.043 73.4219 194.107 73.6758 194.236 73.8281C194.365 73.9805 194.58 74.0566 194.881 74.0566C195.111 74.0566 195.311 73.9902 195.479 73.8574V74.9355ZM201.256 75H199.938V74.0625H199.914C199.5 74.7812 198.893 75.1406 198.092 75.1406C197.502 75.1406 197.039 74.9805 196.703 74.6602C196.371 74.3398 196.205 73.916 196.205 73.3887C196.205 72.2559 196.857 71.5957 198.162 71.4082L199.943 71.1562C199.943 70.3008 199.537 69.873 198.725 69.873C198.01 69.873 197.365 70.1191 196.791 70.6113V69.4219C197.424 69.0469 198.154 68.8594 198.982 68.8594C200.498 68.8594 201.256 69.6055 201.256 71.0977V75ZM199.943 72.0527L198.684 72.2285C198.293 72.2793 197.998 72.375 197.799 72.5156C197.604 72.6523 197.506 72.8945 197.506 73.2422C197.506 73.4961 197.596 73.7051 197.775 73.8691C197.959 74.0293 198.203 74.1094 198.508 74.1094C198.922 74.1094 199.264 73.9648 199.533 73.6758C199.807 73.3828 199.943 73.0156 199.943 72.5742V72.0527ZM206.4 70.2949C206.236 70.166 206 70.1016 205.691 70.1016C205.289 70.1016 204.953 70.2832 204.684 70.6465C204.414 71.0098 204.279 71.5039 204.279 72.1289V75H202.92V69H204.279V70.2363H204.303C204.436 69.8145 204.639 69.4863 204.912 69.252C205.189 69.0137 205.498 68.8945 205.838 68.8945C206.084 68.8945 206.271 68.9316 206.4 69.0059V70.2949ZM212.336 72.3691H208.246C208.262 72.9238 208.432 73.3516 208.756 73.6523C209.084 73.9531 209.533 74.1035 210.104 74.1035C210.744 74.1035 211.332 73.9121 211.867 73.5293V74.625C211.32 74.9688 210.598 75.1406 209.699 75.1406C208.816 75.1406 208.123 74.8691 207.619 74.3262C207.119 73.7793 206.869 73.0117 206.869 72.0234C206.869 71.0898 207.145 70.3301 207.695 69.7441C208.25 69.1543 208.938 68.8594 209.758 68.8594C210.578 68.8594 211.213 69.123 211.662 69.6504C212.111 70.1777 212.336 70.9102 212.336 71.8477V72.3691ZM211.023 71.4082C211.02 70.9199 210.904 70.541 210.678 70.2715C210.451 69.998 210.139 69.8613 209.74 69.8613C209.35 69.8613 209.018 70.0039 208.744 70.2891C208.475 70.5742 208.309 70.9473 208.246 71.4082H211.023ZM217.023 67.2246C216.84 67.1191 216.631 67.0664 216.396 67.0664C215.736 67.0664 215.406 67.4395 215.406 68.1855V69H216.801V70.0664H215.412V75H214.053V70.0664H213.027V69H214.053V68.0273C214.053 67.3945 214.26 66.8965 214.674 66.5332C215.088 66.166 215.605 65.9824 216.227 65.9824C216.562 65.9824 216.828 66.0195 217.023 66.0938V67.2246ZM222.373 75H221.055V74.0625H221.031C220.617 74.7812 220.01 75.1406 219.209 75.1406C218.619 75.1406 218.156 74.9805 217.82 74.6602C217.488 74.3398 217.322 73.916 217.322 73.3887C217.322 72.2559 217.975 71.5957 219.279 71.4082L221.061 71.1562C221.061 70.3008 220.654 69.873 219.842 69.873C219.127 69.873 218.482 70.1191 217.908 70.6113V69.4219C218.541 69.0469 219.271 68.8594 220.1 68.8594C221.615 68.8594 222.373 69.6055 222.373 71.0977V75ZM221.061 72.0527L219.801 72.2285C219.41 72.2793 219.115 72.375 218.916 72.5156C218.721 72.6523 218.623 72.8945 218.623 73.2422C218.623 73.4961 218.713 73.7051 218.893 73.8691C219.076 74.0293 219.32 74.1094 219.625 74.1094C220.039 74.1094 220.381 73.9648 220.65 73.6758C220.924 73.3828 221.061 73.0156 221.061 72.5742V72.0527ZM223.662 74.8125V73.5527C224.17 73.9395 224.73 74.1328 225.344 74.1328C226.164 74.1328 226.574 73.8906 226.574 73.4062C226.574 73.2695 226.539 73.1543 226.469 73.0605C226.398 72.9629 226.303 72.877 226.182 72.8027C226.064 72.7285 225.924 72.6621 225.76 72.6035C225.6 72.5449 225.42 72.4785 225.221 72.4043C224.975 72.3066 224.752 72.2031 224.553 72.0938C224.357 71.9844 224.193 71.8613 224.061 71.7246C223.932 71.584 223.834 71.4258 223.768 71.25C223.701 71.0742 223.668 70.8691 223.668 70.6348C223.668 70.3457 223.736 70.0918 223.873 69.873C224.01 69.6504 224.193 69.4648 224.424 69.3164C224.654 69.1641 224.916 69.0508 225.209 68.9766C225.502 68.8984 225.805 68.8594 226.117 68.8594C226.672 68.8594 227.168 68.9434 227.605 69.1113V70.3008C227.184 70.0117 226.699 69.8672 226.152 69.8672C225.98 69.8672 225.824 69.8848 225.684 69.9199C225.547 69.9551 225.43 70.0039 225.332 70.0664C225.234 70.1289 225.158 70.2051 225.104 70.2949C225.049 70.3809 225.021 70.4766 225.021 70.582C225.021 70.7109 225.049 70.8203 225.104 70.9102C225.158 71 225.238 71.0801 225.344 71.1504C225.453 71.2168 225.582 71.2793 225.73 71.3379C225.883 71.3926 226.057 71.4531 226.252 71.5195C226.51 71.625 226.74 71.7324 226.943 71.8418C227.15 71.9512 227.326 72.0762 227.471 72.2168C227.615 72.3535 227.727 72.5137 227.805 72.6973C227.883 72.877 227.922 73.0918 227.922 73.3418C227.922 73.6465 227.852 73.9121 227.711 74.1387C227.57 74.3652 227.383 74.5527 227.148 74.7012C226.914 74.8496 226.643 74.959 226.334 75.0293C226.029 75.1035 225.707 75.1406 225.367 75.1406C224.711 75.1406 224.143 75.0312 223.662 74.8125ZM237.977 75H236.617V73.9805H236.594C236.156 74.7539 235.482 75.1406 234.572 75.1406C233.834 75.1406 233.242 74.873 232.797 74.3379C232.355 73.7988 232.135 73.0664 232.135 72.1406C232.135 71.1484 232.379 70.3535 232.867 69.7559C233.359 69.1582 234.014 68.8594 234.83 68.8594C235.639 68.8594 236.227 69.1836 236.594 69.832H236.617V66.1172H237.977V75ZM236.635 72.2578V71.4727C236.635 71.0469 236.496 70.6855 236.219 70.3887C235.941 70.0918 235.588 69.9434 235.158 69.9434C234.65 69.9434 234.25 70.1328 233.957 70.5117C233.668 70.8906 233.523 71.416 233.523 72.0879C233.523 72.6973 233.662 73.1797 233.939 73.5352C234.221 73.8867 234.598 74.0625 235.07 74.0625C235.535 74.0625 235.912 73.8926 236.201 73.5527C236.49 73.209 236.635 72.7773 236.635 72.2578ZM244.832 72.3691H240.742C240.758 72.9238 240.928 73.3516 241.252 73.6523C241.58 73.9531 242.029 74.1035 242.6 74.1035C243.24 74.1035 243.828 73.9121 244.363 73.5293V74.625C243.816 74.9688 243.094 75.1406 242.195 75.1406C241.312 75.1406 240.619 74.8691 240.115 74.3262C239.615 73.7793 239.365 73.0117 239.365 72.0234C239.365 71.0898 239.641 70.3301 240.191 69.7441C240.746 69.1543 241.434 68.8594 242.254 68.8594C243.074 68.8594 243.709 69.123 244.158 69.6504C244.607 70.1777 244.832 70.9102 244.832 71.8477V72.3691ZM243.52 71.4082C243.516 70.9199 243.4 70.541 243.174 70.2715C242.947 69.998 242.635 69.8613 242.236 69.8613C241.846 69.8613 241.514 70.0039 241.24 70.2891C240.971 70.5742 240.805 70.9473 240.742 71.4082H243.52ZM258.402 75H257.043V71.7305C257.043 71.1016 256.953 70.6465 256.773 70.3652C256.598 70.084 256.299 69.9434 255.877 69.9434C255.521 69.9434 255.219 70.1211 254.969 70.4766C254.723 70.832 254.6 71.2578 254.6 71.7539V75H253.234V71.6191C253.234 70.502 252.84 69.9434 252.051 69.9434C251.684 69.9434 251.381 70.1113 251.143 70.4473C250.908 70.7832 250.791 71.2188 250.791 71.7539V75H249.432V69H250.791V69.9492H250.814C251.248 69.2227 251.879 68.8594 252.707 68.8594C253.121 68.8594 253.482 68.9746 253.791 69.2051C254.104 69.4316 254.316 69.7305 254.43 70.1016C254.875 69.2734 255.539 68.8594 256.422 68.8594C257.742 68.8594 258.402 69.6738 258.402 71.3027V75ZM264.666 75H263.348V74.0625H263.324C262.91 74.7812 262.303 75.1406 261.502 75.1406C260.912 75.1406 260.449 74.9805 260.113 74.6602C259.781 74.3398 259.615 73.916 259.615 73.3887C259.615 72.2559 260.268 71.5957 261.572 71.4082L263.354 71.1562C263.354 70.3008 262.947 69.873 262.135 69.873C261.42 69.873 260.775 70.1191 260.201 70.6113V69.4219C260.834 69.0469 261.564 68.8594 262.393 68.8594C263.908 68.8594 264.666 69.6055 264.666 71.0977V75ZM263.354 72.0527L262.094 72.2285C261.703 72.2793 261.408 72.375 261.209 72.5156C261.014 72.6523 260.916 72.8945 260.916 73.2422C260.916 73.4961 261.006 73.7051 261.186 73.8691C261.369 74.0293 261.613 74.1094 261.918 74.1094C262.332 74.1094 262.674 73.9648 262.943 73.6758C263.217 73.3828 263.354 73.0156 263.354 72.5742V72.0527ZM271.674 75H270.314V71.6191C270.314 70.498 269.918 69.9375 269.125 69.9375C268.711 69.9375 268.369 70.0938 268.1 70.4062C267.83 70.7148 267.695 71.1055 267.695 71.5781V75H266.33V69H267.695V69.9961H267.719C268.168 69.2383 268.816 68.8594 269.664 68.8594C270.316 68.8594 270.814 69.0723 271.158 69.498C271.502 69.9199 271.674 70.5312 271.674 71.332V75ZM278.418 72.3691H274.328C274.344 72.9238 274.514 73.3516 274.838 73.6523C275.166 73.9531 275.615 74.1035 276.186 74.1035C276.826 74.1035 277.414 73.9121 277.949 73.5293V74.625C277.402 74.9688 276.68 75.1406 275.781 75.1406C274.898 75.1406 274.205 74.8691 273.701 74.3262C273.201 73.7793 272.951 73.0117 272.951 72.0234C272.951 71.0898 273.227 70.3301 273.777 69.7441C274.332 69.1543 275.02 68.8594 275.84 68.8594C276.66 68.8594 277.295 69.123 277.744 69.6504C278.193 70.1777 278.418 70.9102 278.418 71.8477V72.3691ZM277.105 71.4082C277.102 70.9199 276.986 70.541 276.76 70.2715C276.533 69.998 276.221 69.8613 275.822 69.8613C275.432 69.8613 275.1 70.0039 274.826 70.2891C274.557 70.5742 274.391 70.9473 274.328 71.4082H277.105ZM280.398 67.7402C280.176 67.7402 279.984 67.668 279.824 67.5234C279.668 67.3789 279.59 67.1953 279.59 66.9727C279.59 66.75 279.668 66.5645 279.824 66.416C279.984 66.2676 280.176 66.1934 280.398 66.1934C280.629 66.1934 280.824 66.2676 280.984 66.416C281.145 66.5645 281.225 66.75 281.225 66.9727C281.225 67.1836 281.145 67.3652 280.984 67.5176C280.824 67.666 280.629 67.7402 280.398 67.7402ZM281.072 75H279.713V69H281.072V75ZM286.334 70.2949C286.17 70.166 285.934 70.1016 285.625 70.1016C285.223 70.1016 284.887 70.2832 284.617 70.6465C284.348 71.0098 284.213 71.5039 284.213 72.1289V75H282.854V69H284.213V70.2363H284.236C284.369 69.8145 284.572 69.4863 284.846 69.252C285.123 69.0137 285.432 68.8945 285.771 68.8945C286.018 68.8945 286.205 68.9316 286.334 69.0059V70.2949ZM291.9 75H290.582V74.0625H290.559C290.145 74.7812 289.537 75.1406 288.736 75.1406C288.146 75.1406 287.684 74.9805 287.348 74.6602C287.016 74.3398 286.85 73.916 286.85 73.3887C286.85 72.2559 287.502 71.5957 288.807 71.4082L290.588 71.1562C290.588 70.3008 290.182 69.873 289.369 69.873C288.654 69.873 288.01 70.1191 287.436 70.6113V69.4219C288.068 69.0469 288.799 68.8594 289.627 68.8594C291.143 68.8594 291.9 69.6055 291.9 71.0977V75ZM290.588 72.0527L289.328 72.2285C288.938 72.2793 288.643 72.375 288.443 72.5156C288.248 72.6523 288.15 72.8945 288.15 73.2422C288.15 73.4961 288.24 73.7051 288.42 73.8691C288.604 74.0293 288.848 74.1094 289.152 74.1094C289.566 74.1094 289.908 73.9648 290.178 73.6758C290.451 73.3828 290.588 73.0156 290.588 72.5742V72.0527ZM300.262 67.2246C300.078 67.1191 299.869 67.0664 299.635 67.0664C298.975 67.0664 298.645 67.4395 298.645 68.1855V69H300.039V70.0664H298.65V75H297.291V70.0664H296.266V69H297.291V68.0273C297.291 67.3945 297.498 66.8965 297.912 66.5332C298.326 66.166 298.844 65.9824 299.465 65.9824C299.801 65.9824 300.066 66.0195 300.262 66.0938V67.2246ZM305.611 75H304.293V74.0625H304.27C303.855 74.7812 303.248 75.1406 302.447 75.1406C301.857 75.1406 301.395 74.9805 301.059 74.6602C300.727 74.3398 300.561 73.916 300.561 73.3887C300.561 72.2559 301.213 71.5957 302.518 71.4082L304.299 71.1562C304.299 70.3008 303.893 69.873 303.08 69.873C302.365 69.873 301.721 70.1191 301.146 70.6113V69.4219C301.779 69.0469 302.51 68.8594 303.338 68.8594C304.854 68.8594 305.611 69.6055 305.611 71.0977V75ZM304.299 72.0527L303.039 72.2285C302.648 72.2793 302.354 72.375 302.154 72.5156C301.959 72.6523 301.861 72.8945 301.861 73.2422C301.861 73.4961 301.951 73.7051 302.131 73.8691C302.314 74.0293 302.559 74.1094 302.863 74.1094C303.277 74.1094 303.619 73.9648 303.889 73.6758C304.162 73.3828 304.299 73.0156 304.299 72.5742V72.0527ZM304.973 65.9414L303.297 67.8633H302.289L303.707 65.9414H304.973ZM311.57 74.7246C311.09 75.002 310.521 75.1406 309.865 75.1406C308.975 75.1406 308.256 74.8633 307.709 74.3086C307.162 73.75 306.889 73.0273 306.889 72.1406C306.889 71.1523 307.182 70.3594 307.768 69.7617C308.357 69.1602 309.145 68.8594 310.129 68.8594C310.676 68.8594 311.158 68.9551 311.576 69.1465V70.4121C311.158 70.0996 310.713 69.9434 310.24 69.9434C309.666 69.9434 309.195 70.1387 308.828 70.5293C308.461 70.916 308.277 71.4238 308.277 72.0527C308.277 72.6738 308.449 73.1641 308.793 73.5234C309.141 73.8828 309.605 74.0625 310.188 74.0625C310.676 74.0625 311.137 73.8887 311.57 73.541V74.7246ZM313.609 67.7402C313.387 67.7402 313.195 67.668 313.035 67.5234C312.879 67.3789 312.801 67.1953 312.801 66.9727C312.801 66.75 312.879 66.5645 313.035 66.416C313.195 66.2676 313.387 66.1934 313.609 66.1934C313.84 66.1934 314.035 66.2676 314.195 66.416C314.355 66.5645 314.436 66.75 314.436 66.9727C314.436 67.1836 314.355 67.3652 314.195 67.5176C314.035 67.666 313.84 67.7402 313.609 67.7402ZM314.283 75H312.924V69H314.283V75ZM317.43 75H316.064V66.1172H317.43V75ZM327.59 72.3691H323.5C323.516 72.9238 323.686 73.3516 324.01 73.6523C324.338 73.9531 324.787 74.1035 325.357 74.1035C325.998 74.1035 326.586 73.9121 327.121 73.5293V74.625C326.574 74.9688 325.852 75.1406 324.953 75.1406C324.07 75.1406 323.377 74.8691 322.873 74.3262C322.373 73.7793 322.123 73.0117 322.123 72.0234C322.123 71.0898 322.398 70.3301 322.949 69.7441C323.504 69.1543 324.191 68.8594 325.012 68.8594C325.832 68.8594 326.467 69.123 326.916 69.6504C327.365 70.1777 327.59 70.9102 327.59 71.8477V72.3691ZM326.277 71.4082C326.273 70.9199 326.158 70.541 325.932 70.2715C325.705 69.998 325.393 69.8613 324.994 69.8613C324.604 69.8613 324.271 70.0039 323.998 70.2891C323.729 70.5742 323.562 70.9473 323.5 71.4082H326.277ZM20.3652 86.2949C20.2012 86.166 19.9648 86.1016 19.6562 86.1016C19.2539 86.1016 18.918 86.2832 18.6484 86.6465C18.3789 87.0098 18.2441 87.5039 18.2441 88.1289V91H16.8848V85H18.2441V86.2363H18.2676C18.4004 85.8145 18.6035 85.4863 18.877 85.252C19.1543 85.0137 19.4629 84.8945 19.8027 84.8945C20.0488 84.8945 20.2363 84.9316 20.3652 85.0059V86.2949ZM25.9316 91H24.6133V90.0625H24.5898C24.1758 90.7812 23.5684 91.1406 22.7676 91.1406C22.1777 91.1406 21.7148 90.9805 21.3789 90.6602C21.0469 90.3398 20.8809 89.916 20.8809 89.3887C20.8809 88.2559 21.5332 87.5957 22.8379 87.4082L24.6191 87.1562C24.6191 86.3008 24.2129 85.873 23.4004 85.873C22.6855 85.873 22.041 86.1191 21.4668 86.6113V85.4219C22.0996 85.0469 22.8301 84.8594 23.6582 84.8594C25.1738 84.8594 25.9316 85.6055 25.9316 87.0977V91ZM24.6191 88.0527L23.3594 88.2285C22.9688 88.2793 22.6738 88.375 22.4746 88.5156C22.2793 88.6523 22.1816 88.8945 22.1816 89.2422C22.1816 89.4961 22.2715 89.7051 22.4512 89.8691C22.6348 90.0293 22.8789 90.1094 23.1836 90.1094C23.5977 90.1094 23.9395 89.9648 24.209 89.6758C24.4824 89.3828 24.6191 89.0156 24.6191 88.5742V88.0527ZM25.293 81.9414L23.6172 83.8633H22.6094L24.0273 81.9414H25.293ZM28.9785 90.1152H28.9551V93.7598H27.5957V85H28.9551V86.0547H28.9785C29.4434 85.2578 30.123 84.8594 31.0176 84.8594C31.7793 84.8594 32.373 85.127 32.7988 85.6621C33.2246 86.1973 33.4375 86.916 33.4375 87.8184C33.4375 88.8184 33.1973 89.6191 32.7168 90.2207C32.2363 90.8223 31.5801 91.123 30.748 91.123C29.9824 91.123 29.3926 90.7871 28.9785 90.1152ZM28.9434 87.748V88.4922C28.9434 88.9297 29.082 89.3008 29.3594 89.6055C29.6406 89.9102 29.9961 90.0625 30.4258 90.0625C30.9297 90.0625 31.3242 89.8672 31.6094 89.4766C31.8984 89.082 32.043 88.5332 32.043 87.8301C32.043 87.2402 31.9082 86.7793 31.6387 86.4473C31.373 86.1113 31.0117 85.9434 30.5547 85.9434C30.0703 85.9434 29.6797 86.1152 29.3828 86.459C29.0898 86.8027 28.9434 87.2324 28.9434 87.748ZM35.5117 83.7402C35.2891 83.7402 35.0977 83.668 34.9375 83.5234C34.7812 83.3789 34.7031 83.1953 34.7031 82.9727C34.7031 82.75 34.7812 82.5645 34.9375 82.416C35.0977 82.2676 35.2891 82.1934 35.5117 82.1934C35.7422 82.1934 35.9375 82.2676 36.0977 82.416C36.2578 82.5645 36.3379 82.75 36.3379 82.9727C36.3379 83.1836 36.2578 83.3652 36.0977 83.5176C35.9375 83.666 35.7422 83.7402 35.5117 83.7402ZM36.1855 91H34.8262V85H36.1855V91ZM43.4219 91H42.0625V89.9805H42.0391C41.6016 90.7539 40.9277 91.1406 40.0176 91.1406C39.2793 91.1406 38.6875 90.873 38.2422 90.3379C37.8008 89.7988 37.5801 89.0664 37.5801 88.1406C37.5801 87.1484 37.8242 86.3535 38.3125 85.7559C38.8047 85.1582 39.459 84.8594 40.2754 84.8594C41.084 84.8594 41.6719 85.1836 42.0391 85.832H42.0625V82.1172H43.4219V91ZM42.0801 88.2578V87.4727C42.0801 87.0469 41.9414 86.6855 41.6641 86.3887C41.3867 86.0918 41.0332 85.9434 40.6035 85.9434C40.0957 85.9434 39.6953 86.1328 39.4023 86.5117C39.1133 86.8906 38.9688 87.416 38.9688 88.0879C38.9688 88.6973 39.1074 89.1797 39.3848 89.5352C39.666 89.8867 40.043 90.0625 40.5156 90.0625C40.9805 90.0625 41.3574 89.8926 41.6465 89.5527C41.9355 89.209 42.0801 88.7773 42.0801 88.2578ZM49.8027 91H48.4844V90.0625H48.4609C48.0469 90.7812 47.4395 91.1406 46.6387 91.1406C46.0488 91.1406 45.5859 90.9805 45.25 90.6602C44.918 90.3398 44.752 89.916 44.752 89.3887C44.752 88.2559 45.4043 87.5957 46.709 87.4082L48.4902 87.1562C48.4902 86.3008 48.084 85.873 47.2715 85.873C46.5566 85.873 45.9121 86.1191 45.3379 86.6113V85.4219C45.9707 85.0469 46.7012 84.8594 47.5293 84.8594C49.0449 84.8594 49.8027 85.6055 49.8027 87.0977V91ZM48.4902 88.0527L47.2305 88.2285C46.8398 88.2793 46.5449 88.375 46.3457 88.5156C46.1504 88.6523 46.0527 88.8945 46.0527 89.2422C46.0527 89.4961 46.1426 89.7051 46.3223 89.8691C46.5059 90.0293 46.75 90.1094 47.0547 90.1094C47.4688 90.1094 47.8105 89.9648 48.0801 89.6758C48.3535 89.3828 48.4902 89.0156 48.4902 88.5742V88.0527ZM52.0293 91.1289C51.7949 91.1289 51.5957 91.0527 51.4316 90.9004C51.2676 90.7441 51.1855 90.5586 51.1855 90.3438C51.1855 90.125 51.2676 89.9375 51.4316 89.7812C51.5957 89.625 51.7949 89.5469 52.0293 89.5469C52.2676 89.5469 52.4688 89.625 52.6328 89.7812C52.8008 89.9375 52.8848 90.125 52.8848 90.3438C52.8848 90.5586 52.8008 90.7441 52.6328 90.9004C52.4688 91.0527 52.2676 91.1289 52.0293 91.1289Z" fill="#1A1B1C" fill-opacity="0.8"/>
<circle cx="22" cy="108" r="6" fill="#F1E05A"/>
<path d="M33.252 109.988C33.252 110.984 33.041 111.76 32.6191 112.314C32.1973 112.865 31.6328 113.141 30.9258 113.141C30.5977 113.141 30.3281 113.094 30.1172 113V112.027C30.3281 112.18 30.6016 112.256 30.9375 112.256C31.8242 112.256 32.2676 111.504 32.2676 110V104.598H33.252V109.988ZM39.5566 113H38.5957V112.062H38.5723C38.1543 112.781 37.5391 113.141 36.7266 113.141C36.1289 113.141 35.6602 112.982 35.3203 112.666C34.9844 112.35 34.8164 111.93 34.8164 111.406C34.8164 110.285 35.4766 109.633 36.7969 109.449L38.5957 109.197C38.5957 108.178 38.1836 107.668 37.3594 107.668C36.6367 107.668 35.9844 107.914 35.4023 108.406V107.422C35.9922 107.047 36.6719 106.859 37.4414 106.859C38.8516 106.859 39.5566 107.605 39.5566 109.098V113ZM38.5957 109.965L37.1484 110.164C36.7031 110.227 36.3672 110.338 36.1406 110.498C35.9141 110.654 35.8008 110.934 35.8008 111.336C35.8008 111.629 35.9043 111.869 36.1113 112.057C36.3223 112.24 36.6016 112.332 36.9492 112.332C37.4258 112.332 37.8184 112.166 38.127 111.834C38.4395 111.498 38.5957 111.074 38.5957 110.562V109.965ZM46.084 107L43.6934 113H42.75L40.4766 107H41.5312L43.0547 111.359C43.168 111.68 43.2383 111.959 43.2656 112.197H43.2891C43.3281 111.896 43.3906 111.625 43.4766 111.383L45.0703 107H46.084ZM51.416 113H50.4551V112.062H50.4316C50.0137 112.781 49.3984 113.141 48.5859 113.141C47.9883 113.141 47.5195 112.982 47.1797 112.666C46.8438 112.35 46.6758 111.93 46.6758 111.406C46.6758 110.285 47.3359 109.633 48.6562 109.449L50.4551 109.197C50.4551 108.178 50.043 107.668 49.2188 107.668C48.4961 107.668 47.8438 107.914 47.2617 108.406V107.422C47.8516 107.047 48.5312 106.859 49.3008 106.859C50.7109 106.859 51.416 107.605 51.416 109.098V113ZM50.4551 109.965L49.0078 110.164C48.5625 110.227 48.2266 110.338 48 110.498C47.7734 110.654 47.6602 110.934 47.6602 111.336C47.6602 111.629 47.7637 111.869 47.9707 112.057C48.1816 112.24 48.4609 112.332 48.8086 112.332C49.2852 112.332 49.6777 112.166 49.9863 111.834C50.2988 111.498 50.4551 111.074 50.4551 110.562V109.965ZM52.9629 112.66V111.5C53.0957 111.617 53.2539 111.723 53.4375 111.816C53.625 111.91 53.8203 111.99 54.0234 112.057C54.2305 112.119 54.4375 112.168 54.6445 112.203C54.8516 112.238 55.043 112.256 55.2188 112.256C55.8242 112.256 56.2754 112.145 56.5723 111.922C56.873 111.695 57.0234 111.371 57.0234 110.949C57.0234 110.723 56.9727 110.525 56.8711 110.357C56.7734 110.189 56.6367 110.037 56.4609 109.9C56.2852 109.76 56.0762 109.627 55.834 109.502C55.5957 109.373 55.3379 109.238 55.0605 109.098C54.7676 108.949 54.4941 108.799 54.2402 108.646C53.9863 108.494 53.7656 108.326 53.5781 108.143C53.3906 107.959 53.2422 107.752 53.1328 107.521C53.0273 107.287 52.9746 107.014 52.9746 106.701C52.9746 106.318 53.0586 105.986 53.2266 105.705C53.3945 105.42 53.6152 105.186 53.8887 105.002C54.1621 104.818 54.4727 104.682 54.8203 104.592C55.1719 104.502 55.5293 104.457 55.8926 104.457C56.7207 104.457 57.3242 104.557 57.7031 104.756V105.863C57.207 105.52 56.5703 105.348 55.793 105.348C55.5781 105.348 55.3633 105.371 55.1484 105.418C54.9336 105.461 54.7422 105.533 54.5742 105.635C54.4062 105.736 54.2695 105.867 54.1641 106.027C54.0586 106.188 54.0059 106.383 54.0059 106.613C54.0059 106.828 54.0449 107.014 54.123 107.17C54.2051 107.326 54.3242 107.469 54.4805 107.598C54.6367 107.727 54.8262 107.852 55.0488 107.973C55.2754 108.094 55.5352 108.227 55.8281 108.371C56.1289 108.52 56.4141 108.676 56.6836 108.84C56.9531 109.004 57.1895 109.186 57.3926 109.385C57.5957 109.584 57.7559 109.805 57.873 110.047C57.9941 110.289 58.0547 110.566 58.0547 110.879C58.0547 111.293 57.9727 111.645 57.8086 111.934C57.6484 112.219 57.4297 112.451 57.1523 112.631C56.8789 112.811 56.5625 112.939 56.2031 113.018C55.8438 113.1 55.4648 113.141 55.0664 113.141C54.9336 113.141 54.7695 113.129 54.5742 113.105C54.3789 113.086 54.1797 113.055 53.9766 113.012C53.7734 112.973 53.5801 112.924 53.3965 112.865C53.2168 112.803 53.0723 112.734 52.9629 112.66ZM63.6914 112.725C63.2305 113.002 62.6836 113.141 62.0508 113.141C61.1953 113.141 60.5039 112.863 59.9766 112.309C59.4531 111.75 59.1914 111.027 59.1914 110.141C59.1914 109.152 59.4746 108.359 60.041 107.762C60.6074 107.16 61.3633 106.859 62.3086 106.859C62.8359 106.859 63.3008 106.957 63.7031 107.152V108.137C63.2578 107.824 62.7812 107.668 62.2734 107.668C61.6602 107.668 61.1562 107.889 60.7617 108.33C60.3711 108.768 60.1758 109.344 60.1758 110.059C60.1758 110.762 60.3594 111.316 60.7266 111.723C61.0977 112.129 61.5938 112.332 62.2148 112.332C62.7383 112.332 63.2305 112.158 63.6914 111.811V112.725ZM68.2734 107.973C68.1055 107.844 67.8633 107.779 67.5469 107.779C67.1367 107.779 66.793 107.973 66.5156 108.359C66.2422 108.746 66.1055 109.273 66.1055 109.941V113H65.1445V107H66.1055V108.236H66.1289C66.2656 107.814 66.4746 107.486 66.7559 107.252C67.0371 107.014 67.3516 106.895 67.6992 106.895C67.9492 106.895 68.1406 106.922 68.2734 106.977V107.973ZM69.8086 105.477C69.6367 105.477 69.4902 105.418 69.3691 105.301C69.248 105.184 69.1875 105.035 69.1875 104.855C69.1875 104.676 69.248 104.527 69.3691 104.41C69.4902 104.289 69.6367 104.229 69.8086 104.229C69.9844 104.229 70.1328 104.289 70.2539 104.41C70.3789 104.527 70.4414 104.676 70.4414 104.855C70.4414 105.027 70.3789 105.174 70.2539 105.295C70.1328 105.416 69.9844 105.477 69.8086 105.477ZM70.2773 113H69.3164V107H70.2773V113ZM73.207 112.133H73.1836V115.76H72.2227V107H73.1836V108.055H73.207C73.6797 107.258 74.3711 106.859 75.2812 106.859C76.0547 106.859 76.6582 107.129 77.0918 107.668C77.5254 108.203 77.7422 108.922 77.7422 109.824C77.7422 110.828 77.498 111.633 77.0098 112.238C76.5215 112.84 75.8535 113.141 75.0059 113.141C74.2285 113.141 73.6289 112.805 73.207 112.133ZM73.1836 109.713V110.551C73.1836 111.047 73.3438 111.469 73.6641 111.816C73.9883 112.16 74.3984 112.332 74.8945 112.332C75.4766 112.332 75.9316 112.109 76.2598 111.664C76.5918 111.219 76.7578 110.6 76.7578 109.807C76.7578 109.139 76.6035 108.615 76.2949 108.236C75.9863 107.857 75.5684 107.668 75.041 107.668C74.4824 107.668 74.0332 107.863 73.6934 108.254C73.3535 108.641 73.1836 109.127 73.1836 109.713ZM82.0605 112.941C81.834 113.066 81.5352 113.129 81.1641 113.129C80.1133 113.129 79.5879 112.543 79.5879 111.371V107.82H78.5566V107H79.5879V105.535L80.5488 105.225V107H82.0605V107.82H80.5488V111.201C80.5488 111.604 80.6172 111.891 80.7539 112.062C80.8906 112.234 81.1172 112.32 81.4336 112.32C81.6758 112.32 81.8848 112.254 82.0605 112.121V112.941Z" fill="#AEBBFF"/>
<defs>
<linearGradient id="paint0_linear_7_114" x1="0" y1="66.3619" x2="438" y2="66.3619" gradientUnits="userSpaceOnUse">
<stop offset="0.289945" stop-color="#3051FF"/>
<stop offset="0.767106" stop-color="#AEBBFF"/>
</linearGradient>
<clipPath id="clip0_7_114">
<rect width="119" height="134" fill="white" transform="translate(319)"/>
</clipPath>
</defs>
</svg>
