<svg width="26" height="28" viewBox="0 0 26 28" fill="none" xmlns="http://www.w3.org/2000/svg">
<rect x="0.975" y="1.63247" width="24.05" height="24.7623" rx="4.225" stroke="#88E6A3" stroke-width="1.95"/>
<mask id="path-2-inside-1_195_515" fill="white">
<path fill-rule="evenodd" clip-rule="evenodd" d="M25.2237 9.49299L21.3976 4.80835L8.93916 15.5487L4.65956 10.3087L0.519989 13.8774L4.79958 19.1173L4.7773 19.1365L8.60336 23.8212L25.2237 9.49299Z"/>
</mask>
<path fill-rule="evenodd" clip-rule="evenodd" d="M25.2237 9.49299L21.3976 4.80835L8.93916 15.5487L4.65956 10.3087L0.519989 13.8774L4.79958 19.1173L4.7773 19.1365L8.60336 23.8212L25.2237 9.49299Z" fill="#88E6A3"/>
<path d="M21.3976 4.80835L22.9079 3.57486L21.6411 2.02382L20.1244 3.33141L21.3976 4.80835ZM25.2237 9.49299L26.4969 10.9699L27.9351 9.73012L26.734 8.2595L25.2237 9.49299ZM8.93916 15.5487L7.42886 16.7821L8.69563 18.3332L10.2124 17.0256L8.93916 15.5487ZM4.65956 10.3087L6.16986 9.0752L4.90309 7.52417L3.38631 8.83176L4.65956 10.3087ZM0.519989 13.8774L-0.75326 12.4004L-2.1914 13.6402L-0.990307 15.1109L0.519989 13.8774ZM4.79958 19.1173L6.07282 20.5943L7.51098 19.3545L6.30988 17.8838L4.79958 19.1173ZM4.7773 19.1365L3.50406 17.6596L2.06591 18.8994L3.26701 20.37L4.7773 19.1365ZM8.60336 23.8212L7.09306 25.0547L8.35983 26.6057L9.87661 25.2981L8.60336 23.8212ZM19.8873 6.04184L23.7134 10.7265L26.734 8.2595L22.9079 3.57486L19.8873 6.04184ZM10.2124 17.0256L22.6709 6.28528L20.1244 3.33141L7.66591 14.0717L10.2124 17.0256ZM3.14926 11.5422L7.42886 16.7821L10.4495 14.3152L6.16986 9.0752L3.14926 11.5422ZM1.79324 15.3543L5.93281 11.7856L3.38631 8.83176L-0.75326 12.4004L1.79324 15.3543ZM6.30988 17.8838L2.03028 12.6439L-0.990307 15.1109L3.28929 20.3508L6.30988 17.8838ZM6.05054 20.6135L6.07282 20.5943L3.52635 17.6404L3.50406 17.6596L6.05054 20.6135ZM10.1137 22.5877L6.2876 17.903L3.26701 20.37L7.09306 25.0547L10.1137 22.5877ZM23.9504 8.01606L7.33011 22.3442L9.87661 25.2981L26.4969 10.9699L23.9504 8.01606Z" fill="#88E6A3" mask="url(#path-2-inside-1_195_515)"/>
</svg>
