<svg width="26" height="28" viewBox="0 0 26 28" fill="none" xmlns="http://www.w3.org/2000/svg">
<rect x="0.975" y="1.63259" width="24.05" height="24.7623" rx="4.225" stroke="#C8CAAC" stroke-width="1.95"/>
<mask id="path-2-inside-1_133_1201" fill="white">
<path fill-rule="evenodd" clip-rule="evenodd" d="M25.2237 9.49324L21.3977 4.80859L8.93919 15.5489L4.65959 10.3089L0.52002 13.8776L4.79962 19.1176L4.77733 19.1368L8.60339 23.8214L25.2237 9.49324Z"/>
</mask>
<path d="M21.3977 4.80859L22.9079 3.5751L21.6412 2.02406L20.1244 3.33166L21.3977 4.80859ZM25.2237 9.49324L26.497 10.9702L27.9351 9.73037L26.734 8.25974L25.2237 9.49324ZM8.93919 15.5489L7.42889 16.7824L8.69566 18.3334L10.2124 17.0258L8.93919 15.5489ZM4.65959 10.3089L6.16989 9.07545L4.90312 7.52441L3.38634 8.83201L4.65959 10.3089ZM0.52002 13.8776L-0.75323 12.4007L-2.19137 13.6405L-0.990276 15.1111L0.52002 13.8776ZM4.79962 19.1176L6.07285 20.5945L7.51101 19.3547L6.30991 17.8841L4.79962 19.1176ZM4.77733 19.1368L3.50409 17.6598L2.06594 18.8996L3.26704 20.3703L4.77733 19.1368ZM8.60339 23.8214L7.09309 25.0549L8.35986 26.606L9.87664 25.2984L8.60339 23.8214ZM19.8874 6.04209L23.7134 10.7267L26.734 8.25974L22.9079 3.5751L19.8874 6.04209ZM10.2124 17.0258L22.6709 6.28553L20.1244 3.33166L7.66594 14.072L10.2124 17.0258ZM3.14929 11.5424L7.42889 16.7824L10.4495 14.3154L6.16989 9.07545L3.14929 11.5424ZM1.79327 15.3546L5.93284 11.7859L3.38634 8.83201L-0.75323 12.4007L1.79327 15.3546ZM6.30991 17.8841L2.03032 12.6441L-0.990276 15.1111L3.28932 20.3511L6.30991 17.8841ZM6.05057 20.6137L6.07285 20.5945L3.52638 17.6406L3.50409 17.6598L6.05057 20.6137ZM10.1137 22.5879L6.28763 17.9033L3.26704 20.3703L7.09309 25.0549L10.1137 22.5879ZM23.9505 8.0163L7.33014 22.3445L9.87664 25.2984L26.497 10.9702L23.9505 8.0163Z" fill="#C8CAAC" mask="url(#path-2-inside-1_133_1201)"/>
</svg>
