<svg width="25" height="21" viewBox="0 0 25 21" fill="none" xmlns="http://www.w3.org/2000/svg">
<path d="M2 5.64286L11.205 12.03C11.5884 12.2963 12.0391 12.4384 12.5 12.4384C12.9609 12.4384 13.4116 12.2963 13.795 12.03L23 5.64286M4.33333 19H20.6667C21.2855 19 21.879 18.7441 22.3166 18.2887C22.7542 17.8332 23 17.2155 23 16.5714V4.42857C23 3.78447 22.7542 3.16676 22.3166 2.71131C21.879 2.25587 21.2855 2 20.6667 2H4.33333C3.71449 2 3.121 2.25587 2.68342 2.71131C2.24583 3.16676 2 3.78447 2 4.42857V16.5714C2 17.2155 2.24583 17.8332 2.68342 18.2887C3.121 18.7441 3.71449 19 4.33333 19Z" stroke="#3051FF" stroke-width="2.5" stroke-linecap="round" stroke-linejoin="round"/>
</svg>
