<svg width="22" height="27" viewBox="0 0 22 27" fill="none" xmlns="http://www.w3.org/2000/svg">
<path d="M11 0C7.20913 0 4.125 3.02805 4.125 6.75V9.45H2.75C1.23337 9.45 0 10.6609 0 12.15V24.3C0 25.7891 1.23337 27 2.75 27H19.25C20.7666 27 22 25.7891 22 24.3V12.15C22 10.6609 20.7666 9.45 19.25 9.45H17.875V6.75C17.875 3.02805 14.7909 0 11 0ZM6.875 6.75C6.875 4.5171 8.72575 2.7 11 2.7C13.2743 2.7 15.125 4.5171 15.125 6.75V9.45H6.875V6.75ZM19.2528 24.3H12.375V21.2247C13.1931 20.7563 13.75 19.895 13.75 18.9C13.75 17.4109 12.5166 16.2 11 16.2C9.48337 16.2 8.25 17.4109 8.25 18.9C8.25 19.8936 8.80688 20.7563 9.625 21.2247V24.3H2.75V12.15H19.25L19.2528 24.3Z" fill="#3051FF"/>
</svg>
