<svg width="14" height="19" viewBox="0 0 14 19" fill="none" xmlns="http://www.w3.org/2000/svg">
<path d="M0.469 0.897171C0.327639 0.973468 0.209244 1.08798 0.126591 1.22835C0.0439383 1.36871 0.000166503 1.52961 0 1.69366L0 17.8752C0.000658358 18.0389 0.0447533 18.1994 0.127543 18.3393C0.210332 18.4793 0.328683 18.5934 0.469869 18.6693C0.611055 18.7453 0.769733 18.7804 0.92884 18.7706C1.08795 18.7609 1.24146 18.7068 1.37287 18.6141L12.7479 10.5234C12.8645 10.4409 12.9598 10.3305 13.0256 10.2018C13.0915 10.0731 13.1259 9.92984 13.1259 9.78441C13.1259 9.63899 13.0915 9.49574 13.0256 9.36701C12.9598 9.23828 12.8645 9.12793 12.7479 9.04546L1.37287 0.954704C1.24173 0.861133 1.08813 0.806294 0.928764 0.79615C0.769402 0.786006 0.610383 0.820947 0.469 0.897171Z" fill="black"/>
</svg>
