<svg width="26" height="28" viewBox="0 0 26 28" fill="none" xmlns="http://www.w3.org/2000/svg">
<rect x="0.975" y="1.6874" width="24.05" height="24.7623" rx="4.225" stroke="black" stroke-width="1.95"/>
<mask id="path-2-inside-1_361_399" fill="white">
<path fill-rule="evenodd" clip-rule="evenodd" d="M25.2237 9.54817L21.3976 4.86353L8.93916 15.6038L4.65957 10.3639L0.520004 13.9325L4.79959 19.1725L4.77729 19.1917L8.60335 23.8764L25.2237 9.54817Z"/>
</mask>
<path fill-rule="evenodd" clip-rule="evenodd" d="M25.2237 9.54817L21.3976 4.86353L8.93916 15.6038L4.65957 10.3639L0.520004 13.9325L4.79959 19.1725L4.77729 19.1917L8.60335 23.8764L25.2237 9.54817Z" fill="black"/>
<path d="M21.3976 4.86353L22.9079 3.63003L21.6411 2.07899L20.1244 3.38659L21.3976 4.86353ZM25.2237 9.54817L26.4969 11.0251L27.9351 9.7853L26.734 8.31467L25.2237 9.54817ZM8.93916 15.6038L7.42886 16.8373L8.69563 18.3883L10.2124 17.0807L8.93916 15.6038ZM4.65957 10.3639L6.16987 9.13038L4.9031 7.57934L3.38633 8.88694L4.65957 10.3639ZM0.520004 13.9325L-0.753245 12.4556L-2.19139 13.6954L-0.990292 15.166L0.520004 13.9325ZM4.79959 19.1725L6.07282 20.6494L7.51099 19.4096L6.30988 17.939L4.79959 19.1725ZM4.77729 19.1917L3.50405 17.7148L2.06589 18.9546L3.26699 20.4252L4.77729 19.1917ZM8.60335 23.8764L7.09305 25.1099L8.35982 26.6609L9.87659 25.3533L8.60335 23.8764ZM19.8873 6.09702L23.7134 10.7817L26.734 8.31467L22.9079 3.63003L19.8873 6.09702ZM10.2124 17.0807L22.6709 6.34046L20.1244 3.38659L7.66591 14.1269L10.2124 17.0807ZM3.14928 11.5974L7.42886 16.8373L10.4495 14.3703L6.16987 9.13038L3.14928 11.5974ZM1.79325 15.4095L5.93282 11.8408L3.38633 8.88694L-0.753245 12.4556L1.79325 15.4095ZM6.30988 17.939L2.0303 12.6991L-0.990292 15.166L3.28929 20.406L6.30988 17.939ZM6.05053 20.6687L6.07282 20.6494L3.52635 17.6955L3.50405 17.7148L6.05053 20.6687ZM10.1136 22.6429L6.28758 17.9582L3.26699 20.4252L7.09305 25.1099L10.1136 22.6429ZM23.9504 8.07123L7.3301 22.3994L9.87659 25.3533L26.4969 11.0251L23.9504 8.07123Z" fill="black" mask="url(#path-2-inside-1_361_399)"/>
</svg>
